<svg width="30" height="3" fill="none" xmlns="http://www.w3.org/2000/svg"><g clip-path="url('#clip0_201_152')"><path d="M24.453 1.538a30.524 30.524 0 0 0-2.36-.207l-.828-.048a2.48 2.48 0 0 0-.21-.004 2.456 2.456 0 0 0-.16.01l-.37.067c-.23.042-.654.085-1.255.127a2.005 2.005 0 0 1-.239.001c-.04-.002-.06-.005-.057-.008.106-.109-.407-.231-1.528-.365-.928-.11-2.217-.197-3.828-.257L12.443.81c-.154-.005-.35.002-.342.013l.063.087c.043.06-.066.111-.322.155-.313.053-.762.102-1.337.147-.4.03-.854.059-1.352.083-1.2.058-2.176.133-2.855.219-.677.086-1.03.182-1.03.278 0 .085.265.168.788.245.506.075 1.236.143 2.15.2.921.058 1.991.103 3.184.135 1.235.033 2.544.05 3.896.05 1.352 0 2.661-.017 3.896-.05a89.141 89.141 0 0 0 3.185-.135 27.24 27.24 0 0 0 2.148-.2c.523-.077.792-.16.789-.245 0-.088-.285-.173-.851-.254Z" fill="#F2994A"/></g><defs><clipPath id="clip0_201_152"><path fill="#fff" transform="translate(.714 .692)" d="M0 0h29.143v1.846H0z"/></clipPath></defs></svg>