<svg width="30" height="3" fill="none" xmlns="http://www.w3.org/2000/svg"><g clip-path="url('#clip0_201_206')"><path d="M24.453 1.538a30.524 30.524 0 0 0-2.36-.207l-.828-.048a2.474 2.474 0 0 0-.21-.004 2.456 2.456 0 0 0-.16.01l-.37.067c-.23.042-.654.085-1.255.127a2.008 2.008 0 0 1-.239.001c-.04-.002-.06-.005-.057-.008.105-.109-.407-.231-1.528-.365-.928-.11-2.217-.197-3.828-.257L12.443.81c-.154-.005-.35.002-.342.013l.063.087c.042.06-.066.111-.322.155-.313.053-.763.102-1.338.147-.4.03-.853.059-1.351.083-1.2.058-2.176.133-2.855.219-.677.086-1.03.182-1.03.278 0 .085.264.168.788.245.506.075 1.235.143 2.149.2.922.058 1.992.103 3.184.135 1.236.033 2.545.05 3.897.05 1.352 0 2.66-.017 3.896-.05a89.125 89.125 0 0 0 3.184-.135 27.249 27.249 0 0 0 2.15-.2c.522-.077.79-.16.788-.245 0-.088-.285-.173-.851-.254Z" fill="#F2994A"/></g><defs><clipPath id="clip0_201_206"><path fill="#fff" transform="translate(.714 .692)" d="M0 0h29.143v1.846H0z"/></clipPath></defs></svg>