<svg width="537" height="505" fill="none" xmlns="http://www.w3.org/2000/svg"><mask id="mask0_2_7289" style="mask-type:luminance" maskUnits="userSpaceOnUse" x="0" y="328" width="537" height="155"><path d="M0 328.052h536.896v154.667H0V328.052Z" fill="#fff"/></mask><g mask="url('#mask0_2_7289')"><path d="M31.38 469.359S10.031 463.276 9.1 461.01c-.927-2.265 22.568-29.885 22.281-30.01-.281-.12-30.26-1.531-30.26-3.583 0-2.053 24.885-22.5 24.036-22.813-.854-.318-25.052-6.057-24.911-7.573.14-1.515 31.422-27.094 32.552-27.177 1.13-.083 1.979.646 2.687 0 .709-.646 29.865-17.76 31.136-18.187 1.276-.428 28.448 9.619 28.448 9.619l39.771 12.844s44.859-45.807 47.125-44.953c2.265.844 51.375 34.937 51.375 34.937s68.5-19.098 71.755-17.26c3.255 1.844 34.958 24.755 34.958 24.755s30.708-20.791 35.521-19.661c4.812 1.13 21.088 11.599 21.088 11.599s31.558-23.584 36.938-22.401c5.375 1.187 53.495 50.974 53.495 50.974s10.76-6.787 12.458-5.657c1.698 1.131 34.245 32.396 33.969 33.808-.287 1.416-23.922 4.687-23.5 4.463.427-.218 27.885 34.578 26.75 35.573-1.13.99-35.099 2.828-35.099 2.828s12.172 16.547 11.609 17.256c-.567.703-29.724 1.708-29.724 1.708L31.38 469.359Z" fill="#87565E"/></g><path d="M46.76 363.073s18.396-11.688 19.532-12.443c1.13-.755 31.604 11.693 31.604 11.693l-13.302-.094-2.052 8.016-10.214-6.792-10.188 7.453-.661-6.317-13.682 4.619c.281-.093 6.604-7.354 6.229-7.354-.38 0-7.266 1.219-7.266 1.219ZM153.344 355.5c.239-.235 27.015-27.88 28.713-27.88 1.698 0 34.87 25.145 34.87 25.145s-14.396-1.854-14.396-1.473c0 .375-2.843 13.671-2.843 13.671l-12.724-10.75s-13.49 14.615-13.584 13.016c-.094-1.604-1.791-14.078-1.791-14.078s-15.381 9.266-15.099 9.172c.281-.094 3.677-8.203 3.677-8.203l-6.823 1.38ZM270.323 354.198c.239-.458 34.484-10.172 35.526-9.698 1.036.469 25.818 21.073 25.818 21.073l-14.688-2.495s-4.812 7.167-5.943 5.563c-1.13-1.605-8.208-10.375-8.208-10.375l-15.094 5.755s1.604-6.792 1.318-6.698c-.281.099-10.49 3.682-10.339 3.396.151-.282 1.469-5.188 1.188-5.188-.281 0-9.578-1.333-9.578-1.333ZM403.594 358.552c.187-.286 27.265-20.088 31.135-19.052 3.87 1.036 32.344 32.271 32.344 32.271l-16.021-4.073-6.51 5.375-9.209-9.807-13.437 9.807-.938-10.089s-11.661 4.672-11.114 4.078c.541-.588 4.411-8.51 4.13-8.51h-10.38ZM128.182 394.953c.427-.281 17.458-21.234 19.156-20.849 1.698.386 18.302 15.474 20 16.979 1.698 1.511-8.02-1.036-8.02-1.036l.192 6.417-10.192-3.584s-5.188 7.068-5.282 6.125c-.093-.943-1.036-8.015-1.036-8.015l-14.818 3.963ZM330.729 402.448c1.349-.896 17.385-16.078 19.464-15.136 2.078.943 15.093 19.146 15.093 19.146l-10.474-4.01s-2.922 7.969-3.203 7.5c-.286-.474-4.724-5.755-4.724-5.755s-10.088 5.656-10.088 5.375c0-.282 1.031-7.73.656-7.73-.375 0-6.724.61-6.724.61ZM442.234 403.016s19.105-12.448 20.094-12.448c.99 0 18.115 18.244 18.115 18.244l-15.568-2.119s-7.359 9.479-7.359 8.911c0-.568-1.136-9.974-1.136-9.974s-11.318 4.36-11.177 4.333c.141-.015 3.255-5.109 3.255-5.109l-6.224-1.838ZM353.844 362.693s20.099-13.641 21.234-12.938c1.13.708 17.719 11.036 17.719 11.036l-11.354-1.343s-1.974 5.099-1.907 4.526c.068-.573-2.833-4.526-2.833-4.526s-15.495 10.323-15.427 9.76c.073-.568 3.609-9.198 3.609-9.198l-11.041 2.683Z" fill="#F0C9CD"/><path d="M34.635 467.661s-4.812-.849-4.385-11.599c.422-10.75 15.281-23.099 13.87-25.062-1.417-1.958-4.39-4.125-4.953-5.87-.568-1.745-3.823 4.714-5.521-4.39-1.698-9.094 7.927-11.079 12.031-7.823 2.688-3.964-5.099-10.469-4.672-19.943.422-9.479 20.735-18.25 34.708-14.005 13.975 4.244 9.59 14.146 9.87 20.369.287 6.224 7.505 15.704 11.323 13.719 3.823-1.979 1.557-14.005 15-13.156 13.448.849 11.183 13.583 12.031 17.547.849 3.958 14.438-1.844 15.428-9.485.989-7.635 8.13-12.869 14.89-12.161 6.766.708 6.766 6.505 7.328 7.214.568.708 6.37-2.547 9.198 3.817 2.834 6.365-1.557 11.037-1.557 13.157 0 2.119 3.542 8.723 10.193 5.14 6.651-3.583 4.692-10.375 11.333-8.25 6.641 2.12 8.479 11.88 8.057 12.589-.427.703-1.323-5.058 7.407-6.631 8.723-1.572 11.697 1.006 11.838 0 .141-1.01-9.557-17.135-3.719-30.291 5.844-13.156 14.761-5.797 14.761-5.797s-2.834-8.792 10.474-10.552c13.302-1.755 25.896.083 27.593 16.349 0-3.396 13.162-7.073 14.579.281 3.401-4.521 15.994-13.578 25.474-5.516 9.484 8.063 5.807 14.573 8.489 21.787 2.693 7.213 10.901 2.156 15.146 13.739 4.245 11.579-3.964 17.381-3.964 17.381s10.047 7.494 2.829 14.567c-7.214 7.073 57.27 3.823 57.27 3.823s-7.734-8.771-5.468-18.812c2.265-10.047 13.989-4.636 17.125-4.953 3.135-.318 5.38-11.318 17.265-11.459 11.891-.14 13.584 7.782 13.584 7.782s9.63-4.105 15.005-.141c5.375 3.958 5.942 8.906 5.942 8.906s3.683-18.666 17.125-17.536c13.443 1.13 15.287 12.161 16.844 13.437 1.558 1.271 10.328-5.661 15.995 1.13 5.656 6.792-6.516 19.381-6.516 19.808 0 .422 17.985 1.62 13.87 13.859-4.109 12.24-26.89 11.458-26.89 11.458L178 471.948l-143.365-4.287Z" fill="#C8ECE8"/><mask id="mask1_2_7289" style="mask-type:luminance" maskUnits="userSpaceOnUse" x="8" y="444" width="503" height="61"><path d="M8.896 444.052h501.333V505H8.896v-60.948Z" fill="#fff"/></mask><g mask="url('#mask1_2_7289')"><path d="M189.875 457.687c-.563-.968-57.933-2.099-61.61-2.849-3.677-.755-23.869-10.734-28.021-9.614-4.15 1.12-34.682 13.76-34.682 13.76s-16.646-.942-18.724 0c-2.073.943-37.74 16.787-37.74 16.787l112.657 13.39s-9.432 3.396-7.734 5.282c1.697 1.885 245.854 10.562 247.229 9.713 1.38-.849-2.016-6.224-2.016-6.224s49.912 3.141 60.198 3.141c10.286 0 85.953-9.651 86.328-10.594.38-.943-10.187-8.297-10.187-8.297s14.338 1.698 13.776 0c-.568-1.698-25.287-14.682-28.683-15.828-3.395-1.146-63.026-10.391-71.14-12.651-8.115-2.26-79.443-3.641-85.86-6.156-6.422-2.521-30.567 5.588-31.135 6.156-.568.568-26.026.943-33.297-1.505-7.276-2.458-50.203 6.411-50.583 6.411-.375 0-18.776-.922-18.776-.922Z" fill="#A6A535"/></g><path d="M120.224 466.354c.599-.958 32.442-159.448 32.442-160.76 0-1.313 4.672-19.016 5.099-21.553.422-2.536 2.026-34.067 2.12-34.427.094-.359 3.302-3.281 3.589-2.718.281.567-.568 17.916 0 17.161.562-.75 6.979-6.687 6.979-6.687s1.135 3.484 1.135 4.145c0 .657-8.401 9.334-8.401 9.334l-2.073 16.166-12.166 59.183s-23.219 119.411-23.594 120.156c-.375.74-5.13 0-5.13 0Z" fill="#9D3B1D"/><path d="M150.307 295.463s5.193-3.609 5.474-3.583c.286.021 2.031 1.198 2.031 1.198s3.042-.797 3.229-.537c.188.256 1.297 5.183 1.229 5.865-.072.688-1.463 2.313-1.536 3.115-.068.802-.729 4.385-1.437 5.114-.709.735-10.141-.708-10.334-.963-.187-.261 1.344-10.209 1.344-10.209Z" fill="#FAB85E"/><path d="M129.385 283.062c.433 0 5.771 5.198 8.032 6.719 2.265 1.521 9.979 3.677 10.156 4.49.177.812 3.041 0 3.291.812.25.818-.848 10.433-1.77 11.141-.917.708-3.787-.281-3.787-.281s-3.182-.037-5.729-.037-17.937-3.781-18.078-3.927c-.146-.14 6.614-18.917 7.885-18.917Z" fill="#A73251"/><path d="M136.109 428.974c0 .208 6.651 25.745 6.724 26.734.068.99 1.063 9.266 1.485 9.62.427.349 27.244-1.984 27.739-2.547.495-.567.422-3.963 0-4.672-.427-.708-14.859-5.161-14.859-5.375 0-.213-3.75-26.942-4.177-27.578-.422-.64-16.912 3.818-16.912 3.818Z" fill="#342F28"/><path d="M148.917 427.062c0 .214 5.302 26.735 5.338 27.089.042.354 8.885 3.463 9.099 3.536.214.068 1.333-2.375 1.333-2.375l-7.172-2.895-4.244-27.329-4.354 1.974Z" fill="#654C46"/><path d="M91.901 426.286c-.495.636-13.745 21.782-13.745 22.771 0 .99 3.61 7.568 3.61 7.568s2.192-.281 2.26.354c.073.636-1.98 1.063-1.344 1.276.64.208 6.089 4.948 5.521 6.011-.568 1.062-14.167 1.625-14.797 1.099-.63-.532-14.427-20.407-13.864-20.974.567-.568 8-4.105 8-4.313 0-.213 7.713-21.854 7.713-21.854l16.646 8.062Z" fill="#342F28"/><path d="M91.224 427.318s-12.87 21.422-12.855 21.974c.01.557 3.412 6.89 3.412 6.89s3.026.406 2.833.87c-.198.458-1.781 1.276-1.781 1.276l1.24.953s-2.344.563-2.433.563c-.088 0-1.432-.901-1.432-.953 0-.053.849-.834.636-1.026-.214-.193-1.875-.355-1.875-.355s-4.61-8.807-4.422-10.312C74.734 445.687 87 425.13 87 425.13l4.224 2.188Z" fill="#654C46"/><path d="M110.401 366s-1.818 27.469-2.385 28.458c-.563.99-4.313 5.235-4.599 5.87-.282.635-6.297 14.5-6.651 16.057-.355 1.552-.214 5.375-.917 7.282-.708 1.911-4.604 3.609-4.813 3.75-.213.14-15.994-8.277-16.49-9.266-.494-.99-1.416-6.505-1.062-8.49.355-1.974 10.438-21.213 10.651-21.5.214-.281 2.797-.562 2.797-.672 0-.104-.64-1.13-.604-1.765.037-.641 1.662-3.182 2.23-3.432.567-.245.989-.141 1.025-.532.037-.385-.708-.916-.812-1.698-.11-.776-.542-14.864-3.047-24.01-2.5-9.146-3.865-31.073-3.865-31.073s27.453 24.797 28.542 41.021Z" fill="#A46B1E"/><path d="M108.562 366.661s-.854 8.959-.854 9.24c0 .287-4.338-6.411-4.338-6.411s-6.224 15.562-6.886 15.562c-.661 0-3.588-30.932-3.588-30.932s-1.886 2.166-2.735 2.073c-.849-.094-7.172-22.255-6.036-26.688 1.13-4.432 24.437 37.156 24.437 37.156Z" fill="#88591A"/><path d="M81.104 325.734s2.828 9.995 4.531 12.917c1.698 2.927 32.078 41.213 32.641 41.875.568.656-.281 1.057 0 2.12.286 1.062 7.151 6.151 7.432 7.213.281 1.063-.989 1.839-.708 2.688.281.849 4.443 11.177 4.344 12.093-.099.922 1.744 24.334 3.369 25.11 1.631.776 11.818 1.557 13.589 1.13 1.766-.422 8.63-3.958 8.703-4.948.068-.995-6.156-27.021-6.37-28.224-.213-1.198-2.547-15.698-2.828-17.89-.286-2.193-27.953-54.391-28.943-55.662-.994-1.276-33.942-15.797-35.76 1.578Z" fill="#A46B1E"/><path d="M146.182 203.328s2.146 7.708 4.057 9.125c-.046 1.083-5.01 2.146-5.291 2.073-.276-.073 1.234-11.198 1.234-11.198Z" fill="#FAB85E"/><path d="M141.791 186.729s5.073 15.396 5.073 15.724c0 .333-1.203 5.635-.776 7.76.422 2.12-3.645 15.49-4.297 15.771-.656.281-13.536.849-13.89.917-.354.073-2.12 5.307-2.12 5.307l-10.901-7.922 1.276-2.901s-2.266-11.172-.781-17.89c1.489-6.719 16.526-18.177 26.416-16.766Z" fill="#F89C57"/><mask id="mask2_2_7289" style="mask-type:luminance" maskUnits="userSpaceOnUse" x="104" y="179" width="43" height="46"><path d="M104.896 179h41.333v45.052h-41.333V179Z" fill="#fff"/></mask><g mask="url('#mask2_2_7289')"><path d="M121.958 204.557s2.688 2.401 3.068 1.693c.375-.703-.193-2.542 0-2.542.187 0 1.411.709 1.651.188.234-.521-1.135-6.604-1.135-6.604s6.182.755 7.078-.662c-.235-.755-2.172-1.739-2.172-1.739s8.682-2.032 9.297-2.875c.281-.756-4.532-2.36-4.532-2.36s9.105-2.5 9.579-3.114c.468-.615-3.73-1.318-3.73-1.318s4.297-2.828 4.011-3.068c-.281-.234-8.584-.802-8.584-.802s1.651-.849 1.464-1.177c-.193-.328-10.333.422-10.948.422 0 0 .521-.896.474-.984-.052-.099-7.974.843-10.76 5.135.046.047.109-3.328-.209-3.5-.317-.177-9.234 12.094-9.271 13.083-.036.99.99 5.552.99 5.552s-2.76.636-3.005.954c-.25.322 3.219 2.302 3.219 2.302s-.214 6.468.104 8.026c.317 1.552 7.041 12.166 7.359 12.166.318 0 .886-1.666.886-1.666s3.182 2.052 3.645 1.666c.459-.39.068-4.843.068-4.843s1.49 1.27 1.63.885c.141-.396-.354-4.812-.354-4.812s2.651.317 2.547.317c-.104 0-5.906-3.817-6.406-6.333-.495-2.511 1.875-5.974 4.036-3.99Z" fill="#FCD254"/></g><path d="M137.646 204.776c-.307-.104.864-2.396 1.052-2.495.187-.088 5.943-2.338 6.125-2.192.187.145.146 1.932 0 2.447-.146.521-5.859 2.678-7.177 2.24Z" fill="#5D2C26"/><path d="M140.411 207.64s1.464-.656 1.677-.666c.214-.011 1.271.755 1.344.734.068-.01-.187-.437-.187-.474 0-.036-1.271-.791-1.433-.833-.156-.047-1.677.661-1.677.734 0 .068.162.495.276.505Z" fill="#040606"/><path d="M142.432 217.406s-5.896-.427-6.015 0c-.12.422 2.474 3.604 3.349 3.583.875-.026 2.781-3.208 2.666-3.583Z" fill="#fff"/><path d="M123.708 209.969s-1.38-.552-1.396-.891c-.021-.333.672-.917.672-1.021 0-.109-1.63-2.213-1.927-2.213-.302 0-1.755 1.771-1.49 3.005.266 1.24 3.219 3.292 3.698 2.922.479-.375.901-1.417.443-1.802Z" fill="#E86855"/><path d="M124.292 215.443s.073 2.114.39 3.656c.318 1.547 4.74 4.281 4.74 4.281s-5.766-1.604-6.016-2.099c-.244-.495.886-5.838.886-5.838Z" fill="#F27E53"/><mask id="mask3_2_7289" style="mask-type:luminance" maskUnits="userSpaceOnUse" x="108" y="179" width="39" height="20"><path d="M108.896 179h37.333v19.719h-37.333V179Z" fill="#fff"/></mask><g mask="url('#mask3_2_7289')"><path d="M141.073 185.224s4.291-2.828 4.005-3.068c-.281-.234-8.583-.802-8.583-.802s1.651-.849 1.463-1.177c-.193-.328-10.333.422-10.948.422 0 0 .521-.896.474-.984-.047-.099-7.974.843-10.755 5.135.047.047.104-3.323-.214-3.5-.208-.12-4.156 5.177-6.833 9.083l4.5-3.885-.463 2.615s10.052-5.589 10.369-5.62c.318-.037-.567 2.51-.567 2.51l12.099-.568-3.006 2.37 1.943.922-5.625 1.979 4.214 1.417-4.886 1.979 1.948 1.662-3 1.718c1.896.12 4.823.141 5.417-.802-.235-.755-2.167-1.739-2.167-1.739s8.677-2.032 9.292-2.875c.281-.756-4.531-2.36-4.531-2.36s9.109-2.5 9.578-3.114c.474-.615-3.724-1.318-3.724-1.318Z" fill="#F9F17E"/></g><path d="M80.375 324.698c.042.375 1.838 6.891 2 7.172.167.276 4.057-3.828 4.344-7.62 5.776 3.391 27.099.729 27.099.729l-31.698-7.401-1.745 7.12Z" fill="#88591A"/><path d="M108.656 224.74c.141-.026 3.464 0 3.464 0s.708-2.787 1.135-2.787c.422 0 15.141 7.354 16.167 8.839 1.026 1.489-2.157 5.661-2.157 5.661l-1.416 3.042s1.661 23.974.547 28.432c-1.115 4.453-7.256 35.078-7.256 35.078l2.438-.422s-2.688 6.933-4.052 8.818c-1.37 1.885-1.938 6.177-1.938 6.177s2.688 6.458 2.078 7.448c-.614.99-31.942-.24-34.911-5.047-2.974-4.807 25.901-95.239 25.901-95.239Z" fill="#712238"/><path d="m122.458 291.693-24.416 7.922s20.661 10.541 20.661 11.208c0 .672-2.265 7.318-3.114 7.318-.849 0-28.87-9.006-28.87-9.662 0-.661 5.375-17.828 5.375-17.828l21.375-7.589 8.989 8.631ZM110.495 234.542c.213.073 20.734 9.619 21.442 10.75.709 1.13 1.907 6.791 1.907 6.791l1.489-8.062s-8.068-10.729-9.552-11.813c-1.49-1.083-13.234-6.083-15.286-6.083-2.053 0 0 8.417 0 8.417Z" fill="#2C2D2E"/><path d="M112.995 235.109s10.718 6.787 12.156 12.542c1.427 5.75-3.573 22.349-3.573 22.349s6.099-13.391 7.109-13.438c1.006-.046 9.407-.682 10.256 6.235.281 4-17.928 43.698-20.855 45.682-2.921 1.979-10.666 2.828-11.088 2.073-.422-.755-6.458-34.703-6.458-41.776s12.453-33.667 12.453-33.667Z" fill="#872942"/><path d="M106.463 229.167s-19.036-8.599-31.208-5.787c-12.172 2.818-19.672 27.099-19.672 27.099s-5.52 1.464-8.495 5.563c-2.968 4.104-13.161 31.26-7.922 43.713 5.235 12.448 37.933 25.599 44.792 17.964 6.865-7.641 26.537-83.459 22.505-88.552Z" fill="#F6831E"/><path d="M55.583 250.479s12.219 3.677 13.63 8.297c1.417 4.625-12.172 41.682-12.172 41.682l14.72 8.021 25.385-80.068-14.532-5.593s-8.02-1.391-12.833 2.854c-4.813 4.25-11.042 12.739-14.198 24.807Z" fill="#DF7518"/><path d="M81.833 222.661s-1.854-.25-3.49-.062c1.886 6 9.131 9.916 9.131 9.916l3.63-5.802-9.27-4.052Z" fill="#CA551E"/><path d="m67.328 301.594-29.636-10.943s-1.124 10.078 1.99 14.943c3.115 4.864 23.776 15.989 26.23 15.046 2.452-.942 1.416-19.046 1.416-19.046Z" fill="#2C2D2E"/><path d="M130.119 251.234c-.14-.14-2.125-7.64-1.182-8.109.948-.474 8.307-3.583 9.057-3.161.756.427 2.219 2.786 2.74 3.349.516.567 3.208 8.156 2.828 9.385-.375 1.224-3.677 5.182-3.677 5.182l-9.766-6.646Z" fill="#F89C57"/><path d="M128.688 256.562s1.125-5.718 1.692-6.036c.563-.318 7.464 1.063 8.24 1.734.781.672 1.557 6.084 1.594 6.506.036.427-1.271 4.031-1.271 4.031l-10.255-6.235Z" fill="#872942"/><path d="M81.412 201.495s-6.51 10.343-3.891 16.213c2.614 5.87 16.27 14.854 22.781 13.865 6.511-.99 11.182-10.469 11.255-16.13.068-5.657-8.067-14.849-12.599-17.183-4.526-2.338-13.375-2.375-17.546 3.235Z" fill="#F25533"/><path d="M85.76 206.109c-.067.313-2.083 7.396-1.765 9.516.318 2.12 10.297 10.359 14.61 10.042 4.317-.318 7.89-10.86 7.859-12.344-.037-1.485-7.506-8.698-9.875-9.865-2.37-1.172-7.891 6.755-8.172 8.771-.282 2.016 6.192 8.849 7.958 7.781 1.77-1.062 3.255-5.203 3.047-6.474-.214-1.27-3.047-3.609-3.823-3.713-.776-.104-2.089 2.052-1.875 2.896.214.854 2.37 1.948 1.948 2.942-.427.99-3.755-1.099-4.214-2.546-.458-1.454 2.834-7.323 4.032-7.464 1.208-.141 7.291 6.292 7.927 9.12.635 2.828-5.485 7.995-7.255 7.927-1.766-.073-9.584-5.802-9.834-7.677-.245-1.875 1.875-9.193 2.797-10.537.917-1.343 5.27-3.817 6.365-3.682 1.099.146 10.38 3.453 10.38 3.453s-8.537-5.078-10.662-5.469c-2.12-.385-7.807.094-9.448 7.323Z" fill="#A63B21"/><path d="M82.895 240.271c.09-.193 3.47-16.854 7.573-19.281 4.105-2.433 16.136-.027 19.532 3.932 3.396 3.963 4.172 4.812 4.172 8.208s-6.933 18.104-7.214 20.224c-.286 2.125-14.438 47.391-15.286 51.068-.85 3.677-5.094 20.651-8.776 22.068-3.678 1.411-20.24.14-22.079-6.224-1.838-6.37 4.245-28.292 4.245-28.292s10.052-34.656 17.834-51.703Z" fill="#2E3849"/><path d="M83.677 236.943s21.016 4.911 24.979 12.687c-.333.849-1.995 4.938-2.057 5.156-.063.214-18.412-10.276-24.901-11.791.583-3.782 1.979-6.052 1.979-6.052ZM66.198 286.104s27.666 11.385 27.666 12.161c0 .782-1.974 7.152-2.468 7.323-.505.177-26.334-10.432-27.323-11 .635-4.666 2.125-8.484 2.125-8.484Z" fill="#1C222C"/><path d="M121.578 270s-3.016 16.693-4.245 18.672c-1.224 1.979.094 6.411 1.229 6.224 1.13-.188 1.979-8.792 1.979-8.792s.568.964 1.417.964c.849 0 1.651-2.308 1.651-3.677 0-1.365-2.031-13.391-2.031-13.391Z" fill="#712238"/><path d="M105.495 355.109c.234.422 7.406 15.464 10.468 15.464 3.068 0 11.277-4.714 11.891-6.74.615-2.031-6.838-16.552-6.838-16.552l.468-1.083s8.401 15.703 7.834 17.963c-.568 2.266-11.464 9.292-13.256 9.006-1.796-.282-12.125-17.068-12.265-18.813-.146-1.745 1.698.755 1.698.755Z" fill="#88591A"/><path d="M117.76 339.885s-15.521 10.412-15.614 10.792c-.094.375 3.015 6.646 3.63 6.792.614.14 16.323-9.011 16.51-9.907.188-.895-3.864-7.677-4.526-7.677Z" fill="#C17F23"/><path d="M109.167 383.182s-.453 10.886-.604 11.557c-.157.672-4.579 5.162-4.756 5.553-.177.39-2.234 4.312-2.234 4.312s-1.693-2.542-1.98-4.031c-.28-1.485 4.178-8.485 4.194-9.156.02-.672 1.187-6.157 1.468-6.792.287-.636 3.912-1.443 3.912-1.443ZM141.041 369.854s-3.656 6.99-3.562 7.464c.094.468 2.969 6.224 3.114 6.932.141.708 1.131 10.469 1.792 11.552.662 1.083 6.135 1.229 6.135 1.229s-2.411-15.141-2.364-17.26c-.234-.849-5.115-9.917-5.115-9.917Z" fill="#342F28"/><path d="m341.786 464.203-2.192.401a.28.28 0 0 1-.323-.229l-36.604-199.297a.282.282 0 0 1 .218-.328l2.193-.401a.278.278 0 0 1 .323.224l36.609 199.302a.285.285 0 0 1-.224.328Z" fill="#D14351"/><path d="m311.172 292.849-5.058-27.526a1.963 1.963 0 0 0-2.276-1.573 1.971 1.971 0 0 0-1.578 2.281l5.063 27.521 3.849-.703ZM339.172 463.839l2.896 7.52-.157-8.02 3.719-1.021-.177-.974-9.984 1.666.198 1.063 3.505-.234Z" fill="#362E2E"/><path d="M196.089 462.797h-1.933a.287.287 0 0 1-.281-.281V274.469c0-.157.13-.281.281-.281h1.933a.28.28 0 0 1 .281.281v188.047a.283.283 0 0 1-.281.281Z" fill="#D14351"/><path d="M196.875 301.229V275.25c0-1-.787-1.818-1.75-1.818-.969 0-1.755.818-1.755 1.818v25.979h3.505ZM193.875 462.026l1.333 7.354 1.162-7.354 3.442-.302v-.922l-9.062-.151v1.005l3.125.37Z" fill="#362E2E"/><path d="M205.245 294.557c-.105-.036-4.954-.463-5.235-.354-.286.104-1.854 7.802-1.245 8.584.61.786 9.662 1.52 9.662 1.52l-3.182-9.75ZM292.495 285.995c.125-.021 7.469-2.297 7.75-1.906.286.385 1.521 6.505.672 7.072-.849.563-10.297 5.834-10.651 5.162-.354-.672 1.099-10.115 2.229-10.328Z" fill="#D43E26"/><path d="M215.552 342.536s10.995 28.933 25.713 41.948c-1.843.282-12.218 10.844-10.521 14.24 5.474 1.792 11.037 6.036 12.079 8.49 4.619-2.928 9.244-13.391 11.604-14.053-.662-8.583-6.229-33.76-6.229-33.76l.661-1.135s14.813 42.156 16.51 45.27c-2.921 8.865-3.302 18.105-2.828 19.141.469 1.037 5.568-3.302 14.433-3.771 2.172-1.604-4.339-14.713-4.339-16.692 0-1.98-1.849-59.506-9.135-73.037-7.282-13.536-47.948 13.359-47.948 13.359Z" fill="#424C64"/><path d="m238.583 337.521 10.276 20.745s1.604 21.88.662 22.354c-.943.469-13.302-26.031-13.302-26.031s-18.969-9.87-20.667-12.053c-1.698-2.187-1.318-8.411-.656-10.015.656-1.599 23.687 5 23.687 5Z" fill="#2E3849"/><path d="M264.901 332.995s.75 12.922-2.552 16.692c-3.302 3.771-13.396 6.131-21.13-1.979-7.74-8.114-2.235-16.979-2.235-16.979s25.959-4.786 25.917 2.266Z" fill="#2E3849"/><path d="M229.729 206.354c0 .11-1.838 17.12 9.589 22.427 11.427 5.302 4.916-25.286 2.937-28.114-1.984-2.834-12.526 5.687-12.526 5.687Z" fill="#F89C57"/><path d="M243.479 228.411s-5.896-10.937-5.896-11.125c0-.192 1.136.662 1.698-.192.568-.844 3.302-8.391 2.125-10.136-1.177-1.745-5.234 4.854-5.234 4.854s-7.787-3.015-10.005-7.729c-2.219-4.713 2.218-8.583 2.218-8.583s-.328-3.109 1.464-6.552c1.792-3.443 6.37-6.792 12.219-7.12.989.094.047 1.318.047 1.318s6.463-2.167 10.187-1.318c.662.568-2.641 2.922-2.641 2.922s9.224.213 12.053 2.266c2.833 2.046 10.401 6.078 10.192 6.151-.213.067-5.203.14-5.099.213.11.068 10.334 8.557 10.089 8.839-.25.286-4.245.922-4.245.922s7.073 6.786 7.109 7.531c.032.745-6.265-.11-6.265-.11s8.739 13.584 8.422 14.079c-.318.494-9.589-4.282-9.589-4.282l8.172 9.844s-26.26 10.469-37.021-1.792Z" fill="#AE4A1E"/><path d="M279.776 210.672c-.036-.74-7.115-7.531-7.115-7.531s4-.636 4.25-.917c.245-.287-9.979-8.776-10.083-8.844-.109-.073 4.88-.14 5.094-.213.213-.068-7.36-4.099-10.188-6.151-2.833-2.053-12.057-2.261-12.057-2.261s3.302-2.359 2.641-2.927c-3.724-.849-10.188 1.318-10.188 1.318s.943-1.224-.047-1.318c-5.849.328-10.427 3.677-12.218 7.12-1.792 3.443-1.464 6.552-1.464 6.552s.286-8.156 10.521-9.807c.187-.042-.615 1.744-.615 1.744s14.157 0 16.61 2.641c-.287.375-6.042 1.464-6.042 1.464s12.458 7.921 13.068 9.005c.614 1.088-7.969 0-7.969 0l8.771 9.666-9.813-2.687s14.25 12.214 14.578 12.354c.329.141-12.218-1.984-12.218-1.984l16.203 15.005c.26-.057.51-.12.76-.177l-.687-2.615-5.047-6.88 13.255 7.255c.479-.172.745-.276.745-.276l-8.177-9.843s9.271 4.77 9.593 4.276c.318-.495-8.421-14.073-8.421-14.073s6.296.849 6.26.104Z" fill="#DA5A1D"/><path d="M217.817 252.458s-4.625-4.338-4.625-8.39c0-4.058 5.474-14.714 8.021-16.125 2.547-1.417 9.906.755 9.906.755s30.667-4.339 37.74.943c5.005-1.985 11.229-5.193 13.776-2.079 2.547 3.115 8.474 31.12-3.922 31.026-12.401-.093-60.896-6.13-60.896-6.13Z" fill="#F6831E"/><path d="M276.031 254.536s-2.078-7.26-1.745-10.609c.334-3.349 7.151-17 7.896-16.823.74.177 5.125 11.87 4.51 19.37-.609 7.495-1.604 8.719-3.583 10.37-1.984 1.651-6.557 4.244-7.078-2.308Z" fill="#F06019"/><path d="M276.505 257.813s7.005-4.422 7.609-7.073c.599-2.651.844-8.381.599-10.224-.25-1.834-1.593-8.276-2.161-8.381-.568-.104-4.667 12.099-4.49 13.37.177 1.271 2.12 5.198 2.438 5.479.317.287 1.88-2.364 2.052-4.244.182-1.87-.458-5.974-.88-6.573-.427-.604-1.631 4.63-1.381 4.807.245.177 1.167.672 1.235 1.521.073.849-1.026 1.948-1.026 1.948s-1.521-2.302-1.485-2.865c.037-.568 3.183-9.87 3.646-9.302.459.568 1.412 9.266.813 12.484-.599 3.219-7.459 6.636-7.36 6.86.099.224.391 2.193.391 2.193Z" fill="#AE4A1E"/><path d="M270.859 228.823s-3.505 6.193-4.26 10.484c-.755 4.287 1.51 12.302 1.51 12.302l-8.875-5.703s.146-3.989.901-8.359c.756-4.37 5.776-9.203 6.131-9.349.354-.136 2.713 1.015 2.713 1.015s1.396-.901 1.88-.39ZM232.807 228.474s-3.854 4.469-5.458 8.755c-1.604 4.292-.99 8.818-.99 8.818l-4.958.849s-1.13-4.558.047-9.636c1.182-5.078 8.015-9.047 8.177-9.067.156-.016 1.291.234 1.291.234s1.698-.255 1.891.047Z" fill="#2C2D2E"/><path d="M217.63 249.677c-.073.443-19.083 66.656-16.974 72.443 2.115 5.781 14.849 15.541 33.391 18.797 18.536 3.255 28.869-5.235 29.297-5.657.421-.427 14.765-69.682 14.104-78.619-.662-8.943-22.313-15.454-27.125-15.454-4.813 0-31.282-.421-32.693 8.49Z" fill="#B13422"/><path d="m240.463 317.813 19.709 3.875s10.765-62.719 12.37-65.172c1.604-2.453 4.151-3.339 4.906.125.755 3.458-13.078 77.484-13.948 79.463-.865 1.985-8.604 8.839-30.87 5.552-22.265-3.286-32.646-16.302-32.927-19.505-.281-3.208 2.828-14.052 2.828-14.052l37.932 9.714Z" fill="#932B1E"/><path d="M275.469 258.589s-5.474 25.557-5.474 28.572c0 3.021-7.078 32.256-8.495 38.667-1.412 6.412 7.552 10.656 12.646 10.656 5.094 0 7.922-2.64 8.677-6.13.755-3.489 8.401-26.026 9.812-39.703 1.417-13.672 4.818-21.219 2.834-28.667-1.985-7.448-19.532-7.64-20-3.395Z" fill="#2E3849"/><path d="M272.114 273.255s18.683.281 22.599 5.563c.141.614-.896 6.125-1.13 6.224-.239.099-5.099-1.933-9.391-2.594-4.291-.662-12.833-.943-13.489-1.271-.662-.333 1.01-7.448 1.411-7.922ZM265.177 309.984s16.443-2.265 22.141 4.927c.083.495-1.422 6.688-1.969 6.776-.542.084-3.641-4.536-9.099-5.146-5.453-.614-12.104 1.412-12.625 1.271-.521-.14.703-6.031 1.552-7.828Z" fill="#1C222C"/><path d="M277.323 255.797s-1.855-13.24-30.448-15.5c-28.584-2.266-29.813 6.224-31.698 9.994-1.891 3.771 50.099 10.089 54.25 8.865 4.151-1.224 3.229-3.375 7.896-3.359Z" fill="#F25533"/><path d="M261.354 254.786c.146.407-7.916 56.037-7.916 56.037l4.666.672s9.344-52.844 8.776-54.855c-.567-2.01-5.526-1.854-5.526-1.854ZM216.214 248.901s-12.214 44.297-12.688 46.01c-.474 1.714.99 2.625.99 2.625s16.135-45.547 15.661-46.489c-.474-.943-3.963-2.146-3.963-2.146Z" fill="#2C2D2E"/><path d="M214.656 262.088s-16.276 42.297-13.729 49.37c2.547 7.073 39.062 16.125 45.291 13.578 6.224-2.547 14.151-50.708 12.881-58.88-1.276-8.167-39.912-12.838-44.443-4.068Z" fill="#F25533"/><path d="M218.76 263.963s-14.812 32.724-12.734 37.443c2.073 4.714 33.208 15.37 35.193 13.578 1.979-1.791 11.224-44.135 9.906-46.208-1.323-2.078-31.714-6.26-32.365-4.813Z" fill="#F6831E"/><path d="M250.708 273.229c.609.068.781-1.036.125-1.109a127.39 127.39 0 0 0-20.115-.641 153.583 153.583 0 0 0-14.505-6.094c-.594-.213-.974.849-.38 1.068a149.21 149.21 0 0 1 12.542 5.167c-5.318.343-10.62 1.01-15.881 2.021-.598.114-.546 1.213.131 1.083a126.354 126.354 0 0 1 17.817-2.12 151.35 151.35 0 0 1 19.688 11.37c.542.37 1.114-.594.609-.943a153.397 153.397 0 0 0-17.922-10.521c5.959-.177 11.933.052 17.891.719ZM250.969 286.838c-6.104-2.75-13.344-2.661-19.907-3.182-.015 0-.031 0-.046-.005a126.725 126.725 0 0 0-19.526-7.719c-.605-.187-.99.88-.386 1.063a127.157 127.157 0 0 1 16.802 6.437c-6.469-.448-12.943-.698-19.427-.453-.609.021-.781 1.135-.125 1.109 7.167-.265 14.328.052 21.479.594l.834.063a125.722 125.722 0 0 1 17.13 10.234c.536.38 1.109-.583.609-.943a127.105 127.105 0 0 0-14.943-9.119c5.797.328 11.917.64 17.125 2.989.568.261.954-.807.381-1.068ZM248.109 299.63c-8.015-1.245-16.062-2.687-24.151-3.614-5.25-3.318-10.568-6.506-16.302-8.964-.578-.245-.964.818-.38 1.068 4.958 2.125 9.609 4.797 14.172 7.63-5.568-.557-11.157-.839-16.761-.604-.614.026-.781 1.14-.13 1.114 6.375-.265 12.724.131 19.052.844 7.068 4.474 14 9.193 21.61 12.724.567.266.953-.797.38-1.068-6.834-3.166-13.125-7.297-19.453-11.349 7.307.917 14.588 2.203 21.833 3.334.604.093.781-1.011.13-1.115Z" fill="#2C2D2E"/><path d="M239.588 209.432s-1.323 6.625-1.828 6.438c-.505-.188-1.026-1.558-.885-1.933.146-.38.917-.614.885-1.015-.036-.396-.531-.636-.531-.87 0-.24 2.615-3.849 2.359-2.62Z" fill="#E86855"/><path d="M248.859 358.266s-6.557-13.578-7.172-13.907c-.614-.333-14.531-3.046-15.094-2.703-.567.344 11.99 5.813 11.99 5.813s-4.302 1.797-4.021 2.479c.287.682 8.87 2 8.87 2l5.427 6.318ZM242.823 407.214l-21.136 27.724s-4.057 7.734-4.531 8.01c-.469.286-5.375-5.557-5.661-6.412-.282-.843 6.604-5.536 6.604-5.536s11.891-31.146 12.646-32.276c.755-1.13 11.323 2.641 12.078 8.49ZM263.203 422.838s11.604 31.313 11.813 31.594c.213.287 2.041 8.985 2.406 9.266.354.281 8.281-1.557 8.14-2.474-.14-.917-3.609-7.287-3.609-7.287s-2.239-30.531-4.979-35.031c-2.453-.896-13.771 2.323-13.771 3.932Z" fill="#242C38"/><path d="M211.547 436.297s-5.381 4.297-5.334 5.333c.047 1.042 12.406 19.807 13.349 19.005.943-.802-2.64-12.026-2.734-12.729-.094-.708.328-4.958.328-4.958s-4.011-7.125-5.609-6.651ZM285.562 461.224s11.698 1.531 11.605 2.099c-.094.568-10.474 5.515-12.36 6.318-1.885.802-6.416 1.505-6.984.849-.563-.662-.401-6.792-.401-6.792s4.885-.375 8.14-2.474Z" fill="#3F4143"/><path d="M299.432 290.417c-.026-.105-1.172-3.777-.531-5.37.635-1.594 7.713-7.927 9.161-7.292 1.454.641 5.594 6.198 5.521 7.292-.067 1.093-1.984 2.614-1.984 2.614s.042 3.037-.458 3.995c-.49.953-11.297.443-11.709-1.239ZM200.187 294.13s-2.937-4.067-4.281-4.385c-1.344-.318-4.354.781-5.166 2.193-.813 1.416 0 2.968 0 2.968s-.745 6.615.812 8.209c1.557 1.588 5.734 1.588 7.005 0 1.276-1.594 1.63-8.985 1.63-8.985ZM492.661 208.964c.282-.167 6.344-2.881 7.313-3.537.969-.661 11.651-2.286 11.792-2.193.14.094.093 1.058.093 1.058s-5.281 4.177-5.26 4.25c.026.067 1.088 5.536.922 5.843-.167.308-1.646 1.016-1.646 1.016s-1.703 1.646-2.245 2.047c-.542.406-3.021.734-3.114.734-.094 0-1.839-1.276-1.839-1.276l-3.042 1.156-2.974-9.098Z" fill="#F89C57"/><path d="M409.323 203.448c0-.073-.349-8.818-.302-9.031.047-.214 3.468-5.261 3.63-5.235.161.026.307.969.307.969s7.292-1.984 7.36-1.865c.072.115-.99 2.922-.922 2.922.073 0 4.39-.161 4.437.287.047.443-3.75 5.255-3.75 5.255s.214 1.885.214 2.38c0 .495-3.396 2.214-3.396 2.214l.469.567s-3.355 4.756-4.86 4.881c-1.5.13-3.187-3.344-3.187-3.344Z" fill="#FAB85E"/><path d="M399.255 268.49c.188-.282 37.844-8.672 38.688-11.125.843-2.454-18.5-53-20.573-55.454-2.266 2.74-7.136 5.907-7.136 5.907l3.078 7.172s-.38 2.39-.38 3.802c0 1.416 5.682 21.218 5.682 21.218l-29.197-8.864 9.838 37.344Z" fill="#EF2B3A"/><path d="m399.583 423.667 7.88 38.994s-1.604 6.599-.947 7.453c.666.844 28.921 2.594 28.635 1.459-.281-1.13-12.828-11.365-12.828-11.365l-4.057-37.057-18.683.516ZM362.974 417.724l-3.536 42.083s-2.474 7.427-1.912 8.417c.568.989 22.646 1.344 22.859 0 .214-1.339-3.328-7.495-3.328-7.495l2.854-39.75s-4.411-4.953-16.937-3.255Z" fill="#242C38"/><path d="m363.823 408.063-.849 9.661s10.713-.188 16.937 3.255c.047.047.943-9.052.755-9.62-.187-.567-7.5-4.192-16.843-3.296ZM396.661 414.448c.094.026 2.829 8.937 2.922 9.219.094.281 12.078 2.547 18.683-.516-.188-2.74-.99-9.292-.99-9.292l-20.615.589Z" fill="#F25533"/><path d="M346.276 330.307s14.01 46.964 18.823 53.896c-.849 2.261-2.901 22.068-2.334 23.552.563 1.485 11.745.776 17.902 3.604 2.265-.989 3.609-1.906 3.468-3.671-.146-1.771-.265-19.667.011-20.516.271-.849 1.333-13.365 1.333-13.365l6.583 13.151s-2.198 0-1.843 1.49c.354 1.484 2.338 3.745 2.338 3.745s.281 19.166 1.625 21.005c1.344 1.844 8.068 4.526 9.766 4.74 1.698.213 15.64.14 16.062-2.193.427-2.334-3.328-13.224-4.812-17.537-1.485-4.317 1.203-5.093.495-7.64-.709-2.547-12.948-56.865-22.146-70.302-9.203-13.443-47.271 10.041-47.271 10.041Z" fill="#493733"/><path d="M394.182 319.979s-30.213 13.229-30.781 13.583c-.563.355 22.078 40.245 22.078 40.245l-18.609-25.25s-9.979-.427-10.12-1.667c-.141-1.234 7.713-3.781 7.219-4.208-.5-.422-11.11-4.667-11.042-5.656.073-.99 6.651-.849 6.651-.849l-13.302-5.87s-1.912-7.073-2.26-10.89c-.355-3.818 50.166.562 50.166.562Z" fill="#362926"/><path d="m427.656 252.932-24.437 13.485s-17.266 21.031-19.959 18.156c-2.687-2.88-2.437-23.438-2.047-25.323.396-1.886 85.594-30.932 46.443-6.318Z" fill="#F25533"/><path d="M407.344 188.641s2.937 11.88 2.974 12.161c.036.287 4.776 6.865 5.02 7.823.25.948-3.5 3.568-3.5 3.568s-4.671 13.333-5.447 13.755c-.782.427-8.99-.526-8.99-.526l-15.99-9.307 1.87-19.162 24.063-8.312Z" fill="#F89C57"/><path d="M388.38 210.641s-.12 5.984.214 6.739c.328.755 13.547 8.505 13.547 8.505l-6.094-.395-14.516-7.224-.12-5.933 6.969-1.692Z" fill="#F27E53"/><mask id="mask4_2_7289" style="mask-type:luminance" maskUnits="userSpaceOnUse" x="375" y="179" width="41" height="39"><path d="M375.562 179h40v38.385h-40V179Z" fill="#fff"/></mask><g mask="url('#mask4_2_7289')"><path d="M389.912 203.656s1.817 2.641 2.151 2.62c.328-.026.515-1.651.515-1.651s1.177.12 1.323-.427c.141-.542-1.51-6.979-1.51-6.979s1.838.333 2.005.146c.167-.188 0-1.136 0-1.136s2.078-1.13 5.214-1.505c3.135-.38 11.203-3.984 11.343-4.245.136-.26-3.135-.989-3.135-.989s5.614-4.834 6.765-6.959c-.348-.375-6.651 1.183-6.317.922.328-.255 3.114-2.854 2.974-3.37-.146-.52-8.115.709-8.115.709s.917-1.136.896-1.255c-.026-.115-10.333.401-10.333.401s.588-.422.588-.678c0-.26-6.344.678-8.937 1.766-2.599 1.083-9.412 7.615-9.297 7.99.12.38 1.818 1.463 1.75 1.463-.073 0-2.078.38-2.057.709.026.328.875 1.203.875 1.203s.093 6.479.802 9.026c.708 2.547 4.25 13.937 4.645 15.021.401 1.083 1.204-2.053 1.204-2.053s1.349 3.375 1.864 2.709c.516-.656 1.417-3.745 1.417-3.745s.661 1.651 1.036 1.083c.38-.567 1.136-3.651 1.136-3.651s-2.599-.994-3.073-2.432c-.469-1.437-.115-6.036.213-6.651.334-.609 3.589.589 4.058 1.958Z" fill="#582425"/></g><path d="M401.188 200.073s5.708-2.854 6.036-2.641c.333.214.609 2.136.568 2.323-.042.188-2.052 1.568-2.198 1.584-.146.015-3.026.015-3.427-.188-.396-.198-.979-1.078-.979-1.078Z" fill="#582425"/><path d="M406.708 203.833c.052.761-.198 1.401-.552 1.422-.359.031-.687-.573-.745-1.333-.052-.766.198-1.401.558-1.427.354-.026.687.573.739 1.338Z" fill="#040606"/><path d="M389.391 207.245c-.021-.047-1.172-.521-1.183-.901-.005-.38.49-1.115.49-1.297 0-.172-.151-1.188-.203-1.276-.052-.089-1.912-1.094-2.052-.834-.146.256-.151 3.896.239 4.73.391.833 2.193 1.713 2.406 1.395.214-.317.412-1.572.303-1.817Z" fill="#E86855"/><path d="M407.818 217.505c.046-.078-6.808-3.312-7.355-2.333-.541.974.719 5.078 2.485 5.948 1.765.864 3.901-2.058 4.87-3.615Z" fill="#5E1018"/><path d="m411.828 212.073-.943-5.938s-2.338 4.032.943 5.938Z" fill="#F27E53"/><mask id="mask5_2_7289" style="mask-type:luminance" maskUnits="userSpaceOnUse" x="378" y="179" width="38" height="18"><path d="M378.229 179h37.333v17.052h-37.333V179Z" fill="#fff"/></mask><g mask="url('#mask5_2_7289')"><path d="M414.589 182.536c-.355-.375-6.651 1.178-6.323.922.328-.26 3.114-2.854 2.974-3.375-.141-.515-8.115.709-8.115.709s.922-1.131.896-1.25c-.026-.12-10.328.401-10.328.401s.588-.422.588-.683c0-.26-6.349.683-8.942 1.766-1.589.667-4.756 3.365-6.948 5.453 2.77-1.271 9.963-4.557 10.156-4.557.234 0-3.776 3.963-3.636 3.963.146 0 16.704-1.984 16.704-1.984s-3.068 3.161-2.922 3.068c.135-.094 9.385-.188 9.385-.188l-8.255 4.526 5.094.615-8.703 3.562s.01.006.015.006a17.015 17.015 0 0 1 3.38-.766c3.136-.375 11.203-3.984 11.344-4.245.141-.255-3.135-.989-3.135-.989s5.614-4.834 6.771-6.954Z" fill="#793232"/></g><path d="M381.75 216.484s20.62 10.891 20.666 11.078c.047.193-7.692 4.245-7.692 4.245s1.901 2.328 2.047 2.308c.135-.027 9.229-2.214 9.562-2.073.328.14 1.13.755 1.13.755s37.646-9.667 38.495-9.948c.849-.287 4.412-2.875 4.906-2.875h4.104s35.24-11.813 37.714-11.813c2.479 0 4.177 10.042 4.104 10.256-.068.213-68.922 34.375-69.13 34.515-.214.141 8.062-6.719 8.062-6.719s-25.541 6.438-28.161 7.214c-2.62.776-21.089 7.99-22.005 9.333-.922 1.344-.287 14.927 1.411 16.625 1.703 1.698 16.255-12.968 16.255-12.968s-7.546 25.817-7.197 28.057c.354 2.239-.146 4.245-.146 4.245l-.63 7.682s1.625 11.599 1.203 13.083c-.427 1.485-27.245 7.641-35.948 2.052-8.703-5.588 6.109-100.953 6.109-100.953l15.141-4.099Z" fill="#CC2834"/><path d="M380.286 235.672s4.865-.75 8.495-.943c3.636-.187 8.068-.521 8.349-.708.287-.188-1.677-3.318-1.969-3.641-.296-.318-15.77-4.51-18.932-3.901-3.156.615-4.927 3.865-4.927 3.865s5.594 6.557 8.984 5.328ZM403.219 266.417s-17.177 15.89-19.344 17.729c-2.172 1.838-16.984 7.448-16.984 7.448l-2.36 13.015s17.552 6.792 31.328 1.979c-.567-3.015.094-8.578.094-8.578s-18.307-.38-18.682-.474c-.375-.093 18.87-14.239 25.948-27.442-.094-1.224 0-3.677 0-3.677Z" fill="#1C222C"/><path d="M330.635 239.917s-6.437 7.567-7.073 9.198c-.635 1.625-8.562 45.828-7.078 48.802 1.484 2.968 6.984 4.807 6.984 4.807s-.52 4.937 0 6.927c.516 1.984 16.652 7.359 17.219 6.932.568-.422 21.584-78.645 21.584-80.343 0-1.698-13.964-6.646-13.964-6.646l-17.672 10.323Z" fill="#F25533"/><path d="M325.094 246.776s7.38 4.177 8.088 6.437c.709 2.266 2.974 24.5 2.974 24.5l16.49-15.468s2.974-28.058 2.974-28.271c0-.209-18.755-1.073-18.755-1.073s-8.75 8.146-11.771 13.875Z" fill="#D34826"/><path d="M323.469 302.724s4.125 1.083 5.776.375c1.656-.708 3.114-8.625 3.255-8.625.14 0 18.255 6.932 18.255 6.932s-6.365 21.167-6.464 21.026c-.088-.14-20.989-8.864-21.697-10.844-.709-1.979.875-8.864.875-8.864ZM335.026 250.031s-4.885 30.907-4.885 31.901c0 .99 3.114 3.677 3.114 3.677l6.026-35.578h-4.255Z" fill="#63131D"/><path d="M376.703 236.526c-.281-.099-10.474-16.88-13.865-19.24-3.401-2.359-18.588 3.959-23.588 7.448-5.005 3.49-12.276 18.391-12.188 18.959.099.562 2.578.562 4.073 3.015 1.495 2.453 3.677 6.599 4.058 7.448.375.849 18.583-19.427 23.864-19.427 5.287 0 17.646 1.797 17.646 1.797Z" fill="#CC2834"/><path d="M356.229 217.094s-7.323 2.234-10.312 4.041c3.52.016 8.473 3.98 8.473 3.98s-3.057 9.619-2.26 12.093c.797 2.474 17.448.584 19.005-.682 1.558-1.276 3.443-2.552 3.443-2.693 0-.14-.234-3.583-1.458-7.119-1.224-3.532-16.891-9.62-16.891-9.62Z" fill="#A8232D"/><path d="M347.791 257.458s4.927-27.021 7.188-28.573c2.265-1.557 24.557 1.625 26.042 6.224 1.484 4.594-6.016 34.443-6.016 34.443s-6.37 32.891-6.932 33.172c-.568.281-6.157 22.844-7.506 24.328-1.343 1.484-23.635.073-26.817-5.443-3.183-5.521 3.021-21.62 3.515-23.885.495-2.261 8.266-35.459 10.526-40.266Z" fill="#2E3849"/><path d="M362.27 197.906s-9.697 11.599-9.625 15.563c.073 3.958 12.808 13.078 17.48 15.625 4.671 2.552 11.036-5.303 11.39-10.115.354-4.802-4.458-19.094-5.521-21.073-1.062-1.984-12.484-1.531-13.724 0Z" fill="#326E60"/><path d="M366.583 198.469s-6.791 13.156-6.791 17.969c0 4.807 10.614 14.354 13.515 13.932 2.901-.427 10.261-8.912 10.261-11.531 0-2.615-4.318-19.303-5.375-20.933-1.063-1.625-10.829-.989-11.61.563Z" fill="#255147"/><path d="M347.729 253.958s30.078 5.094 30.078 5.657c0 .567-1.38 7.5-1.843 7.677-.459.177-28.959-7.256-29.094-7.36-.13-.104-.021.25-.13-.104-.11-.354.989-5.87.989-5.87ZM337.432 294.474s31.453 7.328 31.557 7.682c.11.354-2.015 7.287-2.333 7.604-.318.318-30.396-8.661-30.568-9.015-.182-.354 1.344-6.271 1.344-6.271ZM330 281.484s4.437 2.308 4.437 2.709c0 .401-1.255 3.771-1.463 3.771-.214 0-3.964-2.167-4.037-2.803-.067-.635 1.063-3.677 1.063-3.677Z" fill="#1C222C"/><path d="M383.568 218.557s-7.573-14.661-9.318-15.797c-1.745-1.13-9.526 8.443-10.094 10.141-.568 1.698 5.474 11.787 6.651 11.505 1.177-.281 8.636-5.047 8.729-6.791.094-1.745-3.682-8.157-4.531-9.287-.849-1.135-6.323 3.724-6.557 4.474-.235.755 2.453 7.266 3.635 7.125 1.177-.141 4.953-2.922 4.62-4.01-.328-1.084-1.604-3.651-2.125-3.985-.516-.328-2.474 1.438-2.594 1.959-.114.52 2.078 1.979 2.078 2.38 0 .401-1.578 2.239-2.099 1.765-.52-.468-1.958-4.687-1.958-4.947 0-.261 3.938-3.042 4.386-2.662.453.375 4.599 5.349 3.703 7.542-.896 2.192-6.438 5.26-7.006 4.76-.567-.495-5.187-8.015-4.786-9.64.401-1.625 7.406-8.839 8.021-8.438.609.396 7.667 12.964 7.948 13.74.281.781.547 2.541.547 2.541s.968-1.51.75-2.375Z" fill="#1A3530"/><path d="M391.422 322.432c0 .141-12.974 12.589-12.974 12.875 0 .281 3.146 2.073 3.146 2.073s11.385-12.588 11.198-12.729c-.188-.141-1.37-2.219-1.37-2.219Z" fill="#654C47"/><g opacity=".2"><path d="M94.683 280.951a.24.24 0 0 1-.08-.013c-.743-.256.34-4.163 2.417-8.731 2.076-4.565 19.457-39.474 19.457-39.474s-14.695 35.833-16.774 40.401c-2.006 4.408-4.203 7.817-5.02 7.817Z" fill="#A1B4F6"/><path d="M56.471 31.58a.251.251 0 0 1-.082-.013c-.176-.061-.249-.328-.231-.76.594-1.45.96-2.339.96-2.339l-.907 1.823c.233-1.556 1.186-4.354 2.595-7.455C59.896 20.44 65.203 9.682 70 0h1.417c-4.135 10.034-8.822 21.33-9.928 23.763-2.003 4.408-4.203 7.817-5.018 7.817Z" fill="#C0CDF9"/><mask id="mask6_2_7289" style="mask-type:luminance" maskUnits="userSpaceOnUse" x="69" y="436" width="10" height="18"><path d="M69.985 436.311h8.346v16.872h-8.346v-16.872Z" fill="#fff"/></mask><g mask="url('#mask6_2_7289')"><path d="M71.414 453.183h-1.417c4.338-8.759 8.263-16.64 8.263-16.64s-3.212 7.835-6.846 16.64Z" fill="#C0CDF9"/></g><path d="M424.884 188.498a.249.249 0 0 1-.083-.013c-.739-.256.344-4.166 2.418-8.731 2.076-4.565 19.457-39.474 19.457-39.474s-14.697 35.835-16.774 40.401c-2.004 4.41-4.203 7.817-5.018 7.817Z" fill="#C6D1F9"/><path d="M411.232 359.941a.24.24 0 0 1-.082-.013c-.74-.256.343-4.166 2.417-8.731 2.076-4.566 19.457-39.474 19.457-39.474s-14.695 35.833-16.774 40.401c-2.003 4.408-4.203 7.817-5.018 7.817Z" fill="#CAD5FA"/><path d="M287.734 410.229a.208.208 0 0 1-.083-.015c-.74-.254.341-4.163 2.42-8.731 2.076-4.566 19.457-39.474 19.457-39.474s-14.698 35.835-16.774 40.403c-2.006 4.408-4.203 7.817-5.02 7.817Z" fill="#A2B5F6"/><path d="M279.354 202.317a.253.253 0 0 1-.08-.013c-.742-.255.341-4.165 2.417-8.731 2.079-4.565 19.458-39.474 19.458-39.474s-14.696 35.835-16.772 40.401c-2.006 4.408-4.205 7.817-5.023 7.817ZM204.151 205.989a.26.26 0 0 1-.081-.015c-.742-.254.341-4.166 2.415-8.731 2.079-4.566 19.458-39.475 19.458-39.475s-14.696 35.836-16.774 40.403c-2.002 4.409-4.201 7.818-5.018 7.818Z" fill="#B9C7F8"/><path d="M466.654 242.613a.26.26 0 0 1-.082-.013c-.74-.256.343-4.165 2.42-8.731 2.076-4.565 19.457-39.474 19.457-39.474s-14.698 35.835-16.774 40.401c-2.004 4.408-4.203 7.817-5.021 7.817Z" fill="#B7C5F8"/><path d="M9 340.753v-6.091c2.352-5.108 19.387-39.326 19.387-39.326s-14.695 35.835-16.774 40.401c-.878 1.934-1.793 3.669-2.613 5.016ZM526.593 343.554a.232.232 0 0 1-.08-.013.168.168 0 0 1-.048-.02c.903-2.2 1.505-3.66 1.505-3.66s-.662 1.326-1.668 3.352c-.198-1.071.851-4.495 2.626-8.403.023-.046.045-.098.07-.149v6.091c-1.053 1.725-1.946 2.804-2.405 2.802Z" fill="#C7D1F9"/><path d="M409.622 428.666a.214.214 0 0 1-.083-.015c-.74-.254.344-4.164 2.42-8.729 2.077-4.566 19.457-39.477 19.457-39.477s-14.697 35.836-16.774 40.403c-2.006 4.409-4.202 7.818-5.02 7.818Z" fill="#ACBCF7"/><path d="M259.38 14.035a.206.206 0 0 1-.083-.013c-.742-.256.341-4.163 2.418-8.73.386-.851 1.304-2.757 2.543-5.292h2.791c-1.259 3.01-2.225 5.278-2.651 6.218-2.004 4.408-4.203 7.817-5.018 7.817Z" fill="#A2B5F6"/><mask id="mask7_2_7289" style="mask-type:luminance" maskUnits="userSpaceOnUse" x="263" y="418" width="19" height="36"><path d="M263.865 418.967h17.334v34.216h-17.334v-34.216Z" fill="#fff"/></mask><g mask="url('#mask7_2_7289')"><path d="M267.047 453.183h-2.791c5.407-11.07 16.915-34.184 16.915-34.184s-9.266 22.592-14.124 34.184Z" fill="#A2B5F6"/></g><path d="M417.124 45.567a.35.35 0 0 1-.1-.015c-.898-.31.414-5.042 2.926-10.571 1.608-3.532 10.779-22.063 17.191-34.981h1.101c-5.46 13.261-13.422 32.542-15.044 36.104-2.428 5.337-5.086 9.463-6.074 9.463Z" fill="#A3B6F7"/><mask id="mask8_2_7289" style="mask-type:luminance" maskUnits="userSpaceOnUse" x="436" y="440" width="8" height="14"><path d="M436.552 440.228h7.062v12.955h-7.062v-12.955Z" fill="#fff"/></mask><g mask="url('#mask8_2_7289')"><path d="M438.239 453.183h-1.101c3.621-7.295 6.365-12.802 6.365-12.802s-2.252 5.487-5.264 12.802Z" fill="#A3B6F7"/></g><path d="M150.648 396.089a.266.266 0 0 1-.083-.013c-.74-.256.344-4.165 2.42-8.731 2.076-4.568 19.457-39.474 19.457-39.474s-14.697 35.835-16.774 40.401c-2.006 4.406-4.203 7.817-5.02 7.817Z" fill="#B6C4F8"/><path d="M41.512 403.205a.319.319 0 0 1-.088-.015c-.785-.271.361-4.415 2.563-9.256 2.202-4.843 20.628-41.85 20.628-41.85s-15.583 37.993-17.784 42.831c-2.124 4.675-4.454 8.29-5.32 8.29Z" fill="#BDCAF9"/><path d="M164.677 80.841a.206.206 0 0 1-.083-.015c-.742-.253.341-4.163 2.418-8.729 1-2.198 5.539-11.419 9.985-20.397-.506 1.464-.684 2.498-.398 2.598.015.005.03.007.047.007.351 0 1.139-1.075 1.999-2.668-3.869 9.371-7.932 19.147-8.948 21.387-2.006 4.408-4.205 7.817-5.02 7.817Z" fill="#B7C5F8"/><path d="M11.459 267.742a.27.27 0 0 1-.083-.015c-.765-.263.35-4.288 2.49-8.992 2.139-4.705 20.042-40.663 20.042-40.663s-15.14 36.913-17.279 41.616c-2.063 4.542-4.33 8.054-5.17 8.054Z" fill="#C8D2F9"/><path d="M242.176 357.382a.285.285 0 0 1-.085-.015c-.775-.267.356-4.352 2.528-9.125 2.169-4.773 20.332-41.255 20.332-41.255s-15.36 37.45-17.531 42.223c-2.094 4.607-4.391 8.172-5.244 8.172Z" fill="#A3B6F7"/><path d="M274.935 71.876a.256.256 0 0 1-.085-.013c-.777-.269.353-4.353 2.525-9.126 2.169-4.773 20.335-41.256 20.335-41.256s-15.36 37.45-17.531 42.224c-2.094 4.609-4.391 8.171-5.244 8.171Z" fill="#BDCAF9"/><path d="M369.449 222.876a.317.317 0 0 1-.093-.013c-.817-.284.379-4.605 2.673-9.651 2.298-5.049 21.507-43.631 21.507-43.631s-16.245 39.607-18.54 44.656c-2.217 4.871-4.644 8.639-5.547 8.639Z" fill="#BECBF9"/><path d="M35.142 138.676a.392.392 0 0 1-.115-.018c-1.028-.356.476-5.796 3.365-12.147 2.89-6.351 27.063-54.908 27.063-54.908s-20.442 49.847-23.331 56.198c-2.789 6.132-5.848 10.875-6.982 10.875Z" fill="#BDCAF9"/><path d="M353.632 303.001a.317.317 0 0 1-.102-.018c-.943-.326.433-5.291 3.074-11.096 2.636-5.802 24.721-50.159 24.721-50.159s-18.675 45.537-21.313 51.337c-2.548 5.602-5.341 9.936-6.38 9.936Z" fill="#B1C1F8"/><path d="M76.459 336.171a.254.254 0 0 1-.083-.013c-.765-.264.35-4.29 2.49-8.993 2.139-4.703 20.042-40.663 20.042-40.663s-15.14 36.913-17.279 41.618c-2.063 4.539-4.33 8.051-5.17 8.051Z" fill="#BCCAF9"/><path d="M358.764 104.595a.265.265 0 0 1-.096-.015c-.875-.302.402-4.915 2.854-10.307 1.991-4.382 15.922-32.435 21.065-42.776-.291.88-.482 1.621-.547 2.142-4.872 11.856-15.475 37.603-17.353 41.73-2.365 5.201-4.96 9.226-5.923 9.226Z" fill="#A0B3F6"/><path d="M63.92 227.046a.405.405 0 0 1-.135-.022c-1.196-.413.554-6.731 3.912-14.114 3.358-7.382 31.452-63.812 31.452-63.812s-23.758 57.929-27.116 65.309c-3.24 7.127-6.794 12.639-8.113 12.639Z" fill="#B7C5F8"/><path d="M145.956 335.357a.374.374 0 0 1-.101-.016c-.92-.319.424-5.168 3-10.833 2.575-5.665 24.136-48.973 24.136-48.973s-14.181 34.581-19.297 46.632c-1.875 3.809-3.41 6.95-3.869 7.958-.155.345-.306.686-.446 1.018-1.49 2.568-2.791 4.214-3.423 4.214Z" fill="#A9BAF7"/><path d="M495.195 19.761a.383.383 0 0 1-.135-.024c-1.219-.422.561-6.858 3.979-14.376.454-.994 1.35-2.867 2.558-5.361h4.82c-1.379 3.274-2.422 5.713-2.956 6.886-3.303 7.26-6.924 12.875-8.266 12.875ZM9 398.616v-.887l2.081-4.183s-.782 1.908-2.081 5.07Z" fill="#C0CDF9"/><mask id="mask9_2_7289" style="mask-type:luminance" maskUnits="userSpaceOnUse" x="501" y="397" width="28" height="57"><path d="M501.395 397.707H529v55.476h-27.605v-55.476Z" fill="#fff"/></mask><g mask="url('#mask9_2_7289')"><path d="M506.42 453.183h-4.82c6.43-13.262 21.805-44.208 27.4-55.455v.888c-4.805 11.703-16.722 40.674-22.58 54.567Z" fill="#C0CDF9"/></g><path d="M474.398 122.54a.284.284 0 0 1-.098-.015c-.898-.31.414-5.042 2.927-10.569 2.515-5.527 23.552-47.783 23.552-47.783s-17.79 43.377-20.302 48.906c-2.428 5.335-5.089 9.461-6.079 9.461Z" fill="#A5B6F7"/><path d="M260.893 287.228a.37.37 0 0 1-.121-.02c-1.098-.378.504-6.168 3.584-12.932 3.074-6.764 28.818-58.47 28.818-58.47s-21.769 53.079-24.843 59.843c-2.972 6.528-6.227 11.579-7.438 11.579Z" fill="#C0CDF9"/><path d="M340.885 164.596a.3.3 0 0 1-.092-.014c-.856-.295.391-4.792 2.781-10.044 2.387-5.254 22.381-45.41 22.381-45.41s-16.907 41.223-19.294 46.476c-2.307 5.071-4.835 8.992-5.776 8.992Z" fill="#B9C7F8"/><path d="M480.155 179.372a.321.321 0 0 1-.105-.018c-.931-.321.428-5.23 3.036-10.964 2.608-5.731 24.43-49.565 24.43-49.565s-18.454 44.997-21.059 50.73c-2.518 5.535-5.279 9.817-6.302 9.817Z" fill="#B1C1F8"/><mask id="mask10_2_7289" style="mask-type:luminance" maskUnits="userSpaceOnUse" x="197" y="435" width="11" height="19"><path d="M197.739 435.191h9.63v17.991h-9.63v-17.991Z" fill="#fff"/></mask><g mask="url('#mask10_2_7289')"><path d="M199.422 453.182h-1.509c4.556-9.198 8.819-17.763 8.819-17.763s-3.488 8.51-7.31 17.763Z" fill="#A5B7F7"/></g><path d="M184.939 30.455a.257.257 0 0 1-.083-.013c-.739-.256.341-4.166 2.418-8.731C188.322 19.407 193.27 9.374 197.912 0h1.509c-4.015 9.736-8.396 20.297-9.464 22.637-2.004 4.408-4.203 7.818-5.018 7.818Z" fill="#A5B7F7"/><path d="M344.658 380.124c-.01-.002-.023-.004-.03-.008-.875-.304.401-4.918 2.854-10.307 2.452-5.39 22.968-46.599 22.968-46.599s-17.351 42.302-19.801 47.694c-2.199 4.836-4.594 8.652-5.695 9.168l1.269-3.093s-.615 1.231-1.565 3.145Z" fill="#C6D1F9"/><path d="M150.658 266.293a.269.269 0 0 1-.085-.015c-.778-.267.353-4.354 2.525-9.125 2.169-4.773 20.335-41.258 20.335-41.258s-15.36 37.453-17.532 42.226c-2.094 4.607-4.391 8.172-5.243 8.172Z" fill="#AFBFF7"/><path d="M219.764 419.015a.38.38 0 0 1-.101-.016c-.885-.308.409-4.98 2.892-10.44 2.482-5.457 23.261-47.191 23.261-47.191s-17.571 42.842-20.054 48.299c-2.395 5.27-5.025 9.348-5.998 9.348Z" fill="#B3C2F8"/><path d="M236.363 155.076a.423.423 0 0 1-.131-.02c-1.176-.406.54-6.609 3.835-13.854 3.295-7.242 30.87-62.623 30.87-62.623s-23.317 56.851-26.612 64.094c-3.182 6.996-6.666 12.403-7.962 12.403Z" fill="#A5B7F7"/><path d="M159.766 165.413a.341.341 0 0 1-.098-.015c-.863-.297.399-4.854 2.819-10.176 2.42-5.321 22.674-46.004 22.674-46.004s-17.127 41.762-19.547 47.084c-2.337 5.136-4.898 9.111-5.848 9.111Z" fill="#ADBDF7"/><path d="M434.107 305.809a.344.344 0 0 1-.108-.018c-.988-.338.454-5.542 3.217-11.62.66-1.449 2.478-5.193 4.86-10.057.57-.833 1.267-2.103 1.929-3.556.21-.461.639-1.469 1.209-2.82 7.666-15.554 17.895-36.099 17.895-36.099s-19.558 47.689-22.322 53.767c-2.668 5.866-5.594 10.403-6.68 10.403Z" fill="#B1C1F8"/><path d="M477.124 384.843a.283.283 0 0 1-.093-.015c-.852-.293.392-4.791 2.781-10.043 2.388-5.254 22.382-45.41 22.382-45.41s-16.905 41.223-19.295 46.477c-2.304 5.07-4.834 8.991-5.775 8.991Z" fill="#C0CDF9"/><path d="M332.403 25.47a.36.36 0 0 1-.13-.022c-1.189-.409.547-6.67 3.872-13.983.762-1.678 2.821-5.925 5.537-11.465h4.255c-2.623 6.29-4.674 11.146-5.494 12.951-3.212 7.06-6.733 12.519-8.04 12.519Z" fill="#B4C3F8"/><mask id="mask11_2_7289" style="mask-type:luminance" maskUnits="userSpaceOnUse" x="341" y="401" width="27" height="53"><path d="M341.54 401.063h26.321v52.12H341.54v-52.12Z" fill="#fff"/></mask><g mask="url('#mask11_2_7289')"><path d="M345.937 453.183h-4.255c9.105-18.579 25.623-51.752 25.623-51.752s-13.356 32.559-21.368 51.752Z" fill="#B4C3F8"/></g><path d="M98.674 444.301a.439.439 0 0 1-.106-.015c-.953-.33.439-5.357 3.107-11.227 2.671-5.87 25.017-50.752 25.017-50.752s-18.895 46.073-21.566 51.945c-2.576 5.665-5.402 10.049-6.453 10.049Z" fill="#B4C3F8"/><path d="M98.566 74.413a.315.315 0 0 1-.093-.015c-.853-.295.391-4.79 2.781-10.044 2.387-5.254 22.381-45.41 22.381-45.41s-5.01 12.22-9.963 24.202c-2.244 4.543-4.323 8.77-4.832 9.891-1.217 2.677-1.854 4.97-1.417 5.12a.05.05 0 0 1 .012.005c-1.472 3.512-2.598 6.163-3.094 7.258-2.305 5.073-4.835 8.993-5.775 8.993Z" fill="#A5B7F7"/><path d="M31.55 92.127c-.018 0-.035 0-.05-.006-.434-.151.203-2.444 1.419-5.119 1.219-2.68 11.41-23.15 11.41-23.15s-8.619 21.015-9.835 23.692c-1.176 2.585-2.465 4.583-2.944 4.583Z" fill="#B3C2F8"/><path d="M356.752 263.021a.112.112 0 0 1-.05-.009c-.434-.148.201-2.441 1.419-5.118 1.217-2.679 11.41-23.151 11.41-23.151s-8.619 21.016-9.837 23.695c-1.176 2.583-2.465 4.583-2.942 4.583Z" fill="#BECBF9"/><path d="M319.325 296.566a.186.186 0 0 1-.048-.006c-.433-.151.199-2.443 1.417-5.121 1.219-2.677 11.41-23.151 11.41-23.151s-8.619 21.018-9.835 23.693c-1.176 2.588-2.465 4.585-2.944 4.585Z" fill="#9BAFF6"/><path d="M452.495 203.108a.178.178 0 0 1-.047-.008c-.434-.151.2-2.444 1.419-5.121 1.216-2.677 11.41-23.151 11.41-23.151s-8.619 21.018-9.838 23.695c-1.176 2.586-2.465 4.585-2.944 4.585Z" fill="#AFBFF7"/><path d="M49.75 438.571c-.015 0-.033-.005-.045-.007-.437-.151.198-2.443 1.416-5.123 1.217-2.677 11.41-23.148 11.41-23.148s-8.618 21.013-9.837 23.692c-1.174 2.586-2.465 4.586-2.944 4.586Z" fill="#A6B8F7"/><path d="M217.354 38.937c-.017 0-.032-.005-.05-.009-.431-.15.203-2.443 1.422-5.12 1.216-2.678 11.408-23.151 11.408-23.151s-8.619 21.015-9.838 23.695c-1.174 2.583-2.463 4.585-2.942 4.585Z" fill="#A1B4F6"/><path d="M491.754 249.439c-.017 0-.035-.005-.05-.009-.434-.151.203-2.444 1.419-5.121 1.219-2.679 11.411-23.148 11.411-23.148s-8.617 21.013-9.836 23.692c-1.176 2.584-2.465 4.586-2.944 4.586Z" fill="#A5B7F7"/><path d="M28.09 244.639a.132.132 0 0 1-.046-.009c-.436-.15.198-2.443 1.417-5.12 1.216-2.678 11.41-23.151 11.41-23.151s-8.619 21.015-9.838 23.695c-1.173 2.583-2.462 4.585-2.944 4.585Z" fill="#9EB1F6"/><path d="M210.292 373.447c-.018 0-.033-.004-.051-.008-.433-.151.201-2.444 1.42-5.121 1.219-2.677 11.41-23.151 11.41-23.151s-8.619 21.016-9.838 23.695c-1.176 2.583-2.462 4.585-2.941 4.585Z" fill="#A1B4F6"/><path d="M407.721 406.346a.103.103 0 0 1-.048-.009c-.436-.149.198-2.441 1.417-5.12 1.216-2.678 11.413-23.149 11.413-23.149s-8.622 21.015-9.838 23.693c-1.176 2.585-2.468 4.585-2.944 4.585Z" fill="#BAC8F8"/><path d="M252.185 146.089a.164.164 0 0 1-.05-.009c-.434-.148.201-2.443 1.419-5.12 1.219-2.678 11.41-23.149 11.41-23.149s-8.619 21.013-9.835 23.693c-1.176 2.585-2.465 4.585-2.944 4.585Z" fill="#B9C6F8"/><path d="M217.069 163.597c-.017 0-.032-.004-.05-.007-.434-.15.201-2.443 1.42-5.122 1.216-2.678 11.41-23.149 11.41-23.149s-8.619 21.013-9.838 23.693c-1.174 2.585-2.463 4.585-2.942 4.585Z" fill="#A1B4F6"/><path d="M270.701 194.888a.135.135 0 0 1-.05-.008c-.459-.158.21-2.566 1.489-5.383 1.282-2.815 11.997-24.338 11.997-24.338s-9.06 22.096-10.342 24.91c-1.236 2.717-2.59 4.819-3.094 4.819Z" fill="#AFBFF7"/><path d="M224.692 296.107a.122.122 0 0 1-.047-.008c-.434-.151.2-2.442 1.417-5.121 1.218-2.679 11.412-23.149 11.412-23.149s-8.619 21.014-9.837 23.693c-1.177 2.583-2.463 4.585-2.945 4.585Z" fill="#B1C1F8"/><path d="M162.009 199.155a.13.13 0 0 1-.05-.009c-.434-.15.201-2.443 1.42-5.118 1.218-2.679 11.41-23.151 11.41-23.151s-8.619 21.016-9.838 23.693c-1.176 2.585-2.463 4.585-2.942 4.585Z" fill="#ADBEF7"/><path d="M185.852 320.858a.233.233 0 0 1-.065-.011c-.592-.203.271-3.32 1.926-6.959 1.655-3.639 15.508-31.46 15.508-31.46s-11.714 28.56-13.369 32.199c-1.597 3.514-3.348 6.231-4 6.231ZM174.262 243.522a.136.136 0 0 1-.052-.009c-.467-.159.215-2.629 1.527-5.514 1.314-2.882 12.29-24.929 12.29-24.929s-9.283 22.632-10.595 25.515c-1.266 2.784-2.653 4.937-3.17 4.937Z" fill="#B7C5F8"/><path d="M161.895 109.458c-.015 0-.033 0-.048-.007-.434-.151.201-2.443 1.417-5.12 1.219-2.678 11.412-23.151 11.412-23.151s-8.619 21.018-9.837 23.693c-1.174 2.587-2.465 4.585-2.944 4.585Z" fill="#9DB1F6"/><path d="M430.658 378.699a.194.194 0 0 1-.063-.011c-.569-.196.261-3.193 1.854-6.696 1.592-3.501 14.921-30.273 14.921-30.273s-11.27 27.482-12.863 30.983c-1.539 3.383-3.224 5.997-3.849 5.997Z" fill="#BBC9F8"/><path d="M115.283 339.089a.165.165 0 0 1-.046-.006c-.436-.151.199-2.444 1.417-5.121 1.216-2.679 11.41-23.151 11.41-23.151s-8.619 21.018-9.837 23.693c-1.174 2.588-2.465 4.585-2.944 4.585Z" fill="#A6B8F7"/><path d="M386.481 81.125a.106.106 0 0 1-.048-.008c-.436-.151.201-2.444 1.417-5.119 1.219-2.68 11.41-23.15 11.41-23.15s-8.617 21.015-9.835 23.692c-1.176 2.586-2.465 4.585-2.944 4.585Z" fill="#A1B4F6"/><path d="M507.634 151.061a.151.151 0 0 1-.05-.007c-.434-.15.2-2.443 1.419-5.12 1.219-2.68 11.41-23.151 11.41-23.151s-8.622 21.016-9.838 23.693c-1.176 2.587-2.465 4.585-2.941 4.585Z" fill="#B7C5F8"/><path d="M129.097 185.255a.112.112 0 0 1-.047-.009c-.437-.148.2-2.441 1.419-5.118 1.216-2.679 11.41-23.151 11.41-23.151s-8.619 21.016-9.838 23.693c-1.176 2.585-2.465 4.585-2.944 4.585ZM65.208 202.741c-.015 0-.032 0-.045-.006-.436-.151.198-2.444 1.417-5.121 1.216-2.677 11.41-23.151 11.41-23.151s-8.619 21.018-9.835 23.695c-1.176 2.586-2.468 4.583-2.947 4.583Z" fill="#B4C3F8"/><path d="M125.698 268.817a.103.103 0 0 1-.048-.009c-.436-.148.201-2.441 1.417-5.118 1.219-2.68 11.413-23.151 11.413-23.151s-8.622 21.016-9.838 23.695c-1.176 2.583-2.468 4.583-2.944 4.583Z" fill="#B8C6F9"/><path d="M408.722 287.247a.133.133 0 0 1-.05-.011c-.444-.153.206-2.504 1.455-5.249 1.248-2.747 11.703-23.745 11.703-23.745s-8.84 21.555-10.089 24.302c-1.206 2.651-2.527 4.703-3.019 4.703Z" fill="#99AEF6"/><path d="M36.948 118.742a.215.215 0 0 1-.05-.006c-.434-.151.203-2.444 1.42-5.123 1.218-2.677 11.41-23.149 11.41-23.149s-8.62 21.016-9.838 23.693c-1.176 2.588-2.463 4.585-2.942 4.585Z" fill="#9EB1F6"/><path d="M80.124 124.254a.16.16 0 0 1-.045-.009c-.436-.151.198-2.443 1.417-5.121 1.216-2.679 11.41-23.15 11.41-23.15s-8.619 21.015-9.835 23.695c-1.176 2.583-2.468 4.585-2.947 4.585Z" fill="#BAC8F8"/><path d="M90.507 162.006a.2.2 0 0 1-.065-.009c-.592-.205.27-3.32 1.928-6.961 1.655-3.638 15.506-31.46 15.506-31.46s-11.714 28.56-13.367 32.199c-1.6 3.514-3.35 6.231-4.002 6.231Z" fill="#ABBBF7"/><path d="M19.576 154.602a.2.2 0 0 1-.05-.007c-.459-.16.21-2.568 1.49-5.383 1.281-2.817 11.997-24.337 11.997-24.337s-9.06 22.093-10.342 24.908c-1.237 2.718-2.59 4.819-3.095 4.819Z" fill="#B4C3F8"/><path d="M125.321 415.203a.18.18 0 0 1-.048-.006c-.434-.151.201-2.444 1.417-5.123 1.219-2.677 11.413-23.149 11.413-23.149s-8.622 21.014-9.838 23.693c-1.176 2.586-2.465 4.585-2.944 4.585Z" fill="#A2B5F6"/><path d="M521.522 62.929a.17.17 0 0 1-.058-.009c-.524-.181.241-2.944 1.71-6.17.612-1.35 3.117-6.447 5.823-11.926v3.255c-1.843 4.445-3.42 8.208-3.929 9.325-1.415 3.117-2.97 5.525-3.546 5.525ZM9 48.079v-3.255c3.77-7.62 7.927-15.975 7.927-15.975S12.486 39.682 9 48.079Z" fill="#BECBF9"/><mask id="mask12_2_7289" style="mask-type:luminance" maskUnits="userSpaceOnUse" x="81" y="429" width="13" height="25"><path d="M81.543 429.597H93.74v23.586H81.543v-23.586Z" fill="#fff"/></mask><g mask="url('#mask12_2_7289')"><path d="M84.048 453.183h-1.906c4.361-8.878 11.415-23.044 11.415-23.044s-5.717 13.941-9.51 23.044Z" fill="#AABBF7"/></g><path d="M77.172 13.211a.284.284 0 0 1-.063-.008c-.556-.195.259-3.134 1.818-6.568.414-.911 1.64-3.429 3.215-6.635h1.906c-1.48 3.554-2.666 6.369-3.102 7.332-1.507 3.316-3.16 5.88-3.774 5.88Z" fill="#AABBF7"/><path d="M43.355 58.923a.117.117 0 0 1-.055-.011c-.467-.16.215-2.63 1.53-5.514 1.08-2.376 8.724-17.766 11.38-23.107a4.857 4.857 0 0 0-.053.516c-2.408 5.857-8.582 20.867-9.635 23.177-1.264 2.786-2.656 4.939-3.167 4.939Z" fill="#A7B9F7"/><path d="M56.157 30.807c.005-.153.025-.324.053-.516l.908-1.823-.96 2.339Z" fill="#C5D1F9"/><path d="M234.412 220.968a.099.099 0 0 1-.047-.009c-.437-.148.2-2.441 1.416-5.118 1.219-2.679 11.413-23.153 11.413-23.153s-8.622 21.018-9.838 23.695c-1.176 2.585-2.467 4.585-2.944 4.585Z" fill="#A3B6F7"/><path d="M469.684 418.788a.164.164 0 0 1-.048-.007c-.433-.151.201-2.443 1.42-5.12 1.216-2.678 11.41-23.151 11.41-23.151s-8.619 21.018-9.838 23.693c-1.173 2.587-2.465 4.585-2.944 4.585Z" fill="#9CB0F6"/><path d="M362.124 435.467a.163.163 0 0 1-.047-.006c-.437-.151.198-2.444 1.417-5.121 1.216-2.677 11.41-23.151 11.41-23.151s-8.619 21.016-9.836 23.693c-1.176 2.588-2.467 4.585-2.944 4.585Z" fill="#ADBDF7"/><path d="M332.457 407.434a.172.172 0 0 1-.052-.009c-.467-.161.215-2.631 1.527-5.514 1.003-2.205 7.643-15.589 10.725-21.787.02.005.043.007.065.007.071 0 .146-.02.231-.059-2.59 6.298-8.318 20.205-9.326 22.425-1.266 2.782-2.653 4.937-3.17 4.937Z" fill="#BBC9F8"/><path d="M344.722 380.131a.27.27 0 0 1-.065-.007c.95-1.914 1.565-3.145 1.565-3.145l-1.269 3.093a.563.563 0 0 1-.231.059Z" fill="#CAD4FA"/><path d="M302.876 362.876a.186.186 0 0 1-.048-.006c-.436-.151.201-2.444 1.417-5.121 1.219-2.679 11.413-23.153 11.413-23.153s-8.622 21.018-9.838 23.695c-1.176 2.586-2.465 4.585-2.944 4.585Z" fill="#A5B7F7"/><path d="M393.093 346.793a.175.175 0 0 1-.055-.008c-.479-.164.223-2.693 1.565-5.646 1.344-2.952 12.581-25.524 12.581-25.524s-9.501 23.171-10.843 26.125c-1.299 2.848-2.721 5.053-3.248 5.053Z" fill="#9CB0F6"/><path d="M381.503 315.812a.123.123 0 0 1-.053-.009c-.492-.168.226-2.755 1.597-5.776 1.374-3.02 12.875-26.119 12.875-26.119s-9.725 23.711-11.099 26.733c-1.327 2.916-2.781 5.171-3.32 5.171Z" fill="#B6C4F8"/><path d="M355.847 210.277a.108.108 0 0 1-.048-.009c-.433-.149.201-2.441 1.417-5.121 1.219-2.677 11.413-23.148 11.413-23.148s-8.622 21.013-9.838 23.693c-1.176 2.585-2.465 4.585-2.944 4.585Z" fill="#ABBBF7"/><path d="M271.196 428.139c-.02 0-.035-.004-.05-.008-.434-.149.2-2.442 1.419-5.121 1.219-2.679 11.41-23.149 11.41-23.149s-8.619 21.014-9.838 23.693c-1.176 2.584-2.462 4.585-2.941 4.585Z" fill="#9EB1F6"/><path d="M271.392 393.076c-.017 0-.035-.005-.052-.009-.479-.166.22-2.695 1.565-5.645 1.341-2.953 12.581-25.527 12.581-25.527s-9.504 23.171-10.846 26.125c-1.297 2.85-2.718 5.056-3.248 5.056Z" fill="#B0C0F8"/><path d="M267.364 358.431a.107.107 0 0 1-.047-.009c-.434-.15.2-2.443 1.419-5.118 1.219-2.679 11.41-23.153 11.41-23.153s-8.619 21.018-9.838 23.695c-1.176 2.585-2.465 4.585-2.944 4.585Z" fill="#ABBBF7"/><path d="M479.101 61.727a.166.166 0 0 1-.05-.009c-.434-.15.198-2.441 1.417-5.12 1.218-2.68 11.412-23.151 11.412-23.151s-8.621 21.015-9.837 23.695c-1.177 2.583-2.466 4.585-2.942 4.585Z" fill="#A5B7F7"/><path d="M416.732 31.725a.114.114 0 0 1-.048-.01c-.434-.148.201-2.44 1.417-5.12 1.216-2.677 11.413-23.148 11.413-23.148s-8.622 21.015-9.838 23.692c-1.176 2.586-2.465 4.586-2.944 4.586Z" fill="#9FB2F6"/><path d="M271.021 65.621c-.018 0-.033 0-.048-.006-.434-.15.201-2.443 1.419-5.12 1.217-2.678 11.408-23.152 11.408-23.152s-8.619 21.018-9.838 23.693c-1.176 2.588-2.462 4.585-2.941 4.585Z" fill="#B9C7F8"/><path d="M468.115 228.093a.126.126 0 0 1-.05-.009c-.434-.151.203-2.441 1.419-5.121 1.219-2.677 11.41-23.148 11.41-23.148s-8.616 21.015-9.835 23.693c-1.176 2.585-2.465 4.585-2.944 4.585Z" fill="#BAC8F8"/><path d="M386.722 255.086a.126.126 0 0 1-.053-.009c-.456-.157.211-2.566 1.492-5.383 1.279-2.815 11.994-24.337 11.994-24.337s-9.06 22.095-10.341 24.91c-1.234 2.716-2.591 4.819-3.092 4.819Z" fill="#B8C6F9"/><path d="M396.547 199.601a.25.25 0 0 1-.066-.009c-.601-.208.279-3.383 1.964-7.092 1.685-3.707 15.798-32.052 15.798-32.052s-11.934 29.099-13.619 32.806c-1.627 3.58-3.413 6.347-4.077 6.347Z" fill="#A3B6F7"/><path d="M107.47 58.167a.162.162 0 0 1-.035-.005c1.75-4.178 3.987-9.572 6.236-15.016 3.127-6.325 6.58-13.26 6.58-13.26s-8.619 21.016-9.837 23.695c-1.176 2.584-2.465 4.586-2.944 4.586Z" fill="#ADBDF7"/><path d="m107.434 58.162-.013-.004c-.436-.15.201-2.443 1.417-5.12.509-1.122 2.588-5.349 4.832-9.892a3587.99 3587.99 0 0 1-6.236 15.016Z" fill="#BAC8F8"/><path d="M109.353 29.325a.184.184 0 0 1-.048-.007c-.436-.15.201-2.443 1.417-5.12 1.219-2.68 11.412-23.151 11.412-23.151s-8.619 21.018-9.837 23.693c-1.174 2.587-2.465 4.585-2.944 4.585Z" fill="#A2B5F6"/><path d="M176.998 51.7c.261-.752.607-1.615 1.018-2.525 1.219-2.677 11.413-23.148 11.413-23.148s-8.622 21.015-9.838 23.693a32.674 32.674 0 0 1-.945 1.916c4.012-9.723 7.824-19.016 7.824-19.016s-4.68 9.4-9.472 19.08Z" fill="#A1B4F6"/><path d="M176.648 54.305a.163.163 0 0 1-.047-.007c-.286-.1-.108-1.134.398-2.598 4.793-9.68 9.472-19.08 9.472-19.08s-3.812 9.293-7.824 19.016c-.86 1.593-1.648 2.669-1.999 2.669Z" fill="#BFCBF9"/><path d="M154.7 78.927a.115.115 0 0 1-.053-.011c-.479-.164.223-2.693 1.565-5.645 1.342-2.953 12.581-25.525 12.581-25.525s-9.504 23.173-10.846 26.126c-1.296 2.85-2.718 5.055-3.247 5.055Z" fill="#B7C5F8"/><path d="M340.801 141.134a.151.151 0 0 1-.051-.008c-.433-.149.204-2.442 1.42-5.121 1.219-2.677 11.41-23.149 11.41-23.149s-8.617 21.014-9.835 23.693c-1.176 2.586-2.465 4.585-2.944 4.585ZM346.226 96.25a.166.166 0 0 1-.05-.008c-.434-.148.2-2.441 1.419-5.12 1.219-2.678 11.41-23.151 11.41-23.151s-8.622 21.017-9.838 23.695c-1.176 2.585-2.465 4.585-2.941 4.585Z" fill="#B1C1F8"/><path d="M427.388 110.287a.108.108 0 0 1-.048-.009c-.434-.149.201-2.441 1.417-5.121 1.218-2.677 11.412-23.148 11.412-23.148s-8.619 21.015-9.837 23.695c-1.177 2.583-2.463 4.583-2.944 4.583Z" fill="#ABBCF7"/><path d="M403.942 157.716a.15.15 0 0 1-.051-.009c-.433-.151.201-2.443 1.42-5.12 1.216-2.678 11.407-23.151 11.407-23.151s-8.616 21.018-9.835 23.695c-1.176 2.585-2.465 4.585-2.941 4.585Z" fill="#A3B6F7"/><path d="M312.069 30.79a.15.15 0 0 1-.045-.007c-.436-.151.198-2.444 1.417-5.123 1.216-2.675 11.41-23.149 11.41-23.149s-8.619 21.016-9.835 23.693c-1.176 2.588-2.465 4.585-2.947 4.585Z" fill="#A6B8F7"/><path d="M476.017 292.687a.13.13 0 0 1-.05-.009c-.431-.148.203-2.441 1.422-5.118 1.216-2.679 11.408-23.151 11.408-23.151s-8.619 21.016-9.838 23.695c-1.174 2.583-2.463 4.583-2.942 4.583Z" fill="#B6C4F8"/><path d="M515.187 368.137a.111.111 0 0 1-.048-.009c-.433-.149.201-2.441 1.42-5.118.908-1.996 6.798-13.876 9.742-19.796.028.15.083.255.163.308-2.528 6.143-7.435 18.058-8.333 20.032-1.176 2.583-2.465 4.583-2.944 4.583Z" fill="#A5B6F7"/><path d="M526.465 343.521c-.08-.052-.135-.157-.163-.308 1.006-2.026 1.668-3.352 1.668-3.352s-.602 1.46-1.505 3.66Z" fill="#C8D3F9"/><path d="M76.024 353.999c-.02 0-.035-.005-.05-.009-.434-.151.2-2.443 1.42-5.121 1.215-2.677 11.41-23.151 11.41-23.151s-8.62 21.018-9.838 23.696c-1.176 2.585-2.465 4.585-2.942 4.585Z" fill="#A3B6F7"/><path d="M513.455 399.164a.118.118 0 0 1-.05-.011c-.469-.159.213-2.629 1.527-5.514 1.309-2.882 12.285-24.93 12.285-24.93s-9.278 22.633-10.592 25.516c-1.264 2.786-2.653 4.939-3.17 4.939Z" fill="#9CB0F6"/><path d="M177.135 418.379a.155.155 0 0 1-.055-.009c-.489-.168.226-2.754 1.6-5.776 1.374-3.023 12.875-26.119 12.875-26.119s-9.725 23.71-11.099 26.731c-1.327 2.917-2.782 5.173-3.321 5.173Z" fill="#BCCAF9"/><path d="M31.086 189.431a.161.161 0 0 1-.06-.011c-.56-.19.256-3.131 1.818-6.563 1.56-3.435 14.627-29.681 14.627-29.681s-11.048 26.943-12.61 30.379c-1.508 3.313-3.16 5.876-3.775 5.876Z" fill="#B9C7F8"/><path d="M100.71 310.608a.142.142 0 0 1-.05-.008c-.444-.153.205-2.505 1.454-5.25 1.249-2.749 11.704-23.745 11.704-23.745s-8.84 21.555-10.089 24.302c-1.206 2.649-2.528 4.701-3.019 4.701Z" fill="#ADBDF7"/><path d="M11.003 433.063a.2.2 0 0 1-.065-.011c-.58-.199.268-3.256 1.89-6.827 1.625-3.571 15.215-30.868 15.215-30.868s-11.49 28.022-13.116 31.591c-1.567 3.449-3.287 6.115-3.924 6.115Z" fill="#BECBF9"/><path d="M463.098 266.835a.135.135 0 0 1-.05-.009c-.457-.157.208-2.566 1.489-5.383 1.282-2.815 11.997-24.338 11.997-24.338s-9.063 22.096-10.342 24.911c-1.236 2.716-2.593 4.819-3.094 4.819Z" fill="#B8C6F9"/><path d="M68.435 91.817a.19.19 0 0 1-.07-.013c-.634-.219.294-3.572 2.072-7.484 1.78-3.914 16.678-33.835 16.678-33.835S74.52 81.202 72.74 85.114c-1.718 3.78-3.604 6.703-4.304 6.703Z" fill="#B4C3F8"/><path d="M233.061 63.991a.112.112 0 0 1-.047-.009c-.434-.15.198-2.44 1.417-5.12 1.218-2.678 11.412-23.149 11.412-23.149s-8.621 21.016-9.838 23.693c-1.176 2.585-2.465 4.585-2.944 4.585Z" fill="#ABBBF7"/><mask id="mask13_2_7289" style="mask-type:luminance" maskUnits="userSpaceOnUse" x="274" y="434" width="10" height="20"><path d="M274.135 434.632h9.629v18.551h-9.629v-18.551Z" fill="#fff"/></mask><g mask="url('#mask13_2_7289')"><path d="M275.885 453.183h-1.552c4.769-9.627 9.047-18.216 9.047-18.216s-3.503 8.538-7.495 18.216Z" fill="#A2B5F6"/></g><path d="M259.131 35.44a.291.291 0 0 1-.09-.015c-.825-.284.378-4.634 2.691-9.717 1.223-2.69 7.227-14.86 12.603-25.708h1.553c-4.635 11.238-9.929 24.012-11.17 26.742-2.232 4.904-4.679 8.698-5.587 8.698Z" fill="#A2B5F6"/><path d="M287.085 164.143a.253.253 0 0 1-.057-.008c-.547-.191.251-3.069 1.78-6.434 1.53-3.364 14.337-29.087 14.337-29.087s-10.828 26.405-12.361 29.768c-1.477 3.25-3.094 5.761-3.699 5.761Z" fill="#ABBCF7"/><path d="M173.241 161.154a.234.234 0 0 1-.066-.011c-.579-.199.269-3.257 1.891-6.828 1.625-3.571 15.214-30.868 15.214-30.868s-11.49 28.023-13.115 31.592c-1.567 3.448-3.287 6.115-3.924 6.115Z" fill="#B7C5F8"/><path d="M9 202.536v-1.095a3297.06 3297.06 0 0 1 2.593-5.212s-1.07 2.609-2.593 6.307ZM515.203 232.483a.131.131 0 0 1-.06-.011c-.559-.19.256-3.131 1.818-6.563 1.119-2.46 8.143-16.631 12.037-24.468v1.095c-3.368 8.186-8.945 21.706-10.021 24.071-1.507 3.313-3.159 5.876-3.774 5.876Z" fill="#A7B9F7"/><path d="M267.721 236.743a.268.268 0 0 1-.065-.009c-.592-.205.271-3.322 1.926-6.958 1.657-3.641 15.507-31.46 15.507-31.46s-11.711 28.557-13.368 32.198c-1.598 3.513-3.348 6.229-4 6.229Z" fill="#B3C2F8"/><path d="M350.097 290.764a.19.19 0 0 1-.053-.009c-.466-.161.218-2.631 1.527-5.514 1.314-2.884 12.29-24.932 12.29-24.932s-9.283 22.633-10.592 25.516c-1.269 2.784-2.656 4.939-3.172 4.939Z" fill="#9CB0F6"/><path d="M40.663 221.243c-.017 0-.032 0-.047-.006-.434-.151.198-2.443 1.417-5.121 1.216-2.677 11.412-23.148 11.412-23.148s-8.621 21.015-9.837 23.692c-1.177 2.586-2.466 4.583-2.945 4.583Z" fill="#9AAEF6"/><path d="M307.564 124.536a.167.167 0 0 1-.063-.011c-.566-.197.264-3.193 1.854-6.695 1.595-3.503 14.923-30.275 14.923-30.275s-11.27 27.485-12.862 30.986c-1.54 3.381-3.225 5.995-3.852 5.995Z" fill="#9FB2F6"/><path d="M200.391 105.502a.216.216 0 0 1-.078-.013c-.68-.234.314-3.82 2.219-8.008 1.904-4.19 17.848-36.21 17.848-36.21s-13.482 32.871-15.388 37.06c-1.838 4.044-3.854 7.171-4.601 7.171Z" fill="#B4C3F8"/><path d="M434.534 436.96a.162.162 0 0 1-.055-.009c-.489-.168.226-2.755 1.602-5.776 1.372-3.022 12.873-26.119 12.873-26.119s-9.725 23.709-11.1 26.731c-1.324 2.918-2.778 5.173-3.32 5.173Z" fill="#BBC9F8"/><mask id="mask14_2_7289" style="mask-type:luminance" maskUnits="userSpaceOnUse" x="140" y="422" width="17" height="32"><path d="M140.606 422.883h15.408v30.3h-15.408v-30.3Z" fill="#fff"/></mask><g mask="url('#mask14_2_7289')"><path d="M143.159 453.183h-2.407c3.205-6.677 14.861-30.09 14.861-30.09s-9.216 22.478-12.454 30.09Z" fill="#ABBCF7"/></g><path d="M167.04 384.3a.215.215 0 0 1-.068-.011c-.614-.212.281-3.444 2.001-7.223 1.715-3.776 16.09-32.646 16.09-32.646s-12.155 29.637-13.873 33.416c-1.658 3.643-3.476 6.464-4.15 6.464Z" fill="#9EB1F6"/><path d="M141.937 297.469a.253.253 0 0 1-.056-.006c-.478-.167.224-2.695 1.565-5.648 1.344-2.952 12.581-25.522 12.581-25.522s-9.504 23.171-10.845 26.123c-1.297 2.85-2.719 5.053-3.245 5.053Z" fill="#A1B4F6"/><path d="M313.767 213.177a.152.152 0 0 1-.057-.009c-.537-.183.245-3.005 1.745-6.301 1.497-3.298 14.043-28.492 14.043-28.492s-10.61 25.865-12.107 29.161c-1.447 3.18-3.034 5.641-3.624 5.641Z" fill="#9FB3F6"/><path d="M303.262 391.642a.162.162 0 0 1-.048-.007c-.436-.151.198-2.443 1.417-5.123 1.216-2.675 11.412-23.148 11.412-23.148s-8.621 21.015-9.837 23.693c-1.176 2.585-2.468 4.585-2.944 4.585Z" fill="#9DB1F6"/><path d="M200.732 206.561a.175.175 0 0 1-.057-.008c-.512-.177.235-2.881 1.672-6.039 1.437-3.158 13.459-27.307 13.459-27.307s-10.166 24.79-11.603 27.948c-1.384 3.048-2.906 5.406-3.471 5.406Z" fill="#9BAFF6"/><path d="M148.211 336.172a.145.145 0 0 1-.055-.009c-.459-.157.088-2.319 1.224-5.02.9-1.547 1.868-3.427 2.806-5.486.303-.666.825-1.879 1.51-3.49 4.012-8.143 9.589-19.35 9.589-19.35s-10.166 24.79-11.601 27.948c-1.386 3.049-2.906 5.407-3.473 5.407Z" fill="#A7B8F7"/><path d="M149.376 331.143c.14-.332.291-.673.446-1.018.459-1.008 1.994-4.148 3.87-7.958a180.853 180.853 0 0 1-1.51 3.49c-.938 2.059-1.906 3.939-2.806 5.486Z" fill="#B9C7F8"/><path d="M226.714 347.683a.286.286 0 0 1-.073-.011c-.657-.227.303-3.696 2.146-7.748 1.841-4.052 17.261-35.022 17.261-35.022s-13.038 31.794-14.881 35.844c-1.78 3.912-3.729 6.937-4.453 6.937Z" fill="#B8C6F9"/><path d="M374.194 404.512a.184.184 0 0 1-.07-.011c-.637-.221.291-3.571 2.072-7.483 1.78-3.914 16.678-33.838 16.678-33.838s-12.598 30.719-14.376 34.631c-1.721 3.779-3.604 6.701-4.304 6.701Z" fill="#AFBFF7"/><path d="M446.618 173.207a.287.287 0 0 1-.088-.011c-.767-.267.356-4.323 2.51-9.061 2.157-4.738 20.19-40.958 20.19-40.958s-15.252 37.181-17.404 41.919c-2.081 4.575-4.361 8.111-5.208 8.111Z" fill="#BAC8F8"/><path d="M435.951 335.72c-.03 0-.053-.007-.078-.014-.68-.233.313-3.82 2.217-8.007 1.906-4.19 17.85-36.212 17.85-36.212s-13.482 32.872-15.388 37.062c-1.838 4.043-3.854 7.171-4.601 7.171Z" fill="#B1C1F8"/><path d="M214.736 135.684a.135.135 0 0 1-.055-.009c-.479-.166.221-2.692 1.562-5.645 1.345-2.953 12.584-25.524 12.584-25.524s-9.504 23.17-10.848 26.123c-1.297 2.85-2.719 5.055-3.243 5.055Z" fill="#AFBFF7"/><path d="M248.246 181.907c-.02 0-.04 0-.058-.009-.536-.184.246-3.005 1.743-6.301 1.5-3.295 14.046-28.492 14.046-28.492s-10.608 25.865-12.107 29.161c-1.447 3.182-3.035 5.641-3.624 5.641Z" fill="#A5B6F7"/><path d="M487.342 203.569c-.02 0-.035 0-.05-.006-.434-.151.198-2.444 1.417-5.121 1.219-2.677 11.413-23.151 11.413-23.151s-8.622 21.018-9.838 23.695c-1.176 2.586-2.465 4.583-2.942 4.583Z" fill="#B5C4F8"/><path d="M256.604 284.509a.162.162 0 0 1-.065-.011c-.567-.197.266-3.193 1.855-6.694 1.595-3.504 14.924-30.276 14.924-30.276s-11.272 27.485-12.865 30.986c-1.537 3.381-3.222 5.995-3.849 5.995Z" fill="#ADBDF7"/><path d="M140.768 229.131a.145.145 0 0 1-.057-.011c-.525-.179.24-2.942 1.707-6.172 1.47-3.225 13.753-27.897 13.753-27.897s-10.387 25.327-11.854 28.553c-1.417 3.116-2.972 5.527-3.549 5.527Z" fill="#B2C2F8"/><path d="M190.08 280.158a.165.165 0 0 1-.068-.011c-.599-.206.278-3.381 1.966-7.09 1.685-3.706 15.799-32.052 15.799-32.052s-11.934 29.097-13.62 32.806c-1.63 3.578-3.413 6.347-4.077 6.347Z" fill="#9EB1F6"/><path d="M127.877 138.132a.184.184 0 0 1-.068-.014c-.624-.214.289-3.505 2.037-7.352 1.747-3.844 16.385-33.24 16.385-33.24s-12.378 30.176-14.126 34.023c-1.688 3.711-3.538 6.583-4.228 6.583Z" fill="#B4C3F8"/><path d="M492.608 119.732a.318.318 0 0 1-.093-.015c-.823-.284.381-4.633 2.693-9.717 2.31-5.079 21.649-43.924 21.649-43.924s-16.355 39.877-18.665 44.956c-2.229 4.906-4.677 8.7-5.584 8.7Z" fill="#ACBCF7"/><path d="M342.1 67.977a.116.116 0 0 1-.048-.008c-.446-.151.206-2.505 1.455-5.25 1.249-2.747 11.701-23.745 11.701-23.745s-8.84 21.555-10.089 24.302c-1.204 2.651-2.528 4.701-3.019 4.701Z" fill="#B4C3F8"/><path d="M469.336 379.678a.164.164 0 0 1-.05-.009c-.456-.157.211-2.568 1.49-5.383 1.281-2.814 11.996-24.337 11.996-24.337s-9.062 22.093-10.341 24.908c-1.234 2.719-2.591 4.821-3.095 4.821Z" fill="#A7B9F7"/><path d="M111.076 382.307a.168.168 0 0 1-.07-.013c-.637-.218.291-3.571 2.071-7.483 1.778-3.914 16.679-33.836 16.679-33.836s-12.598 30.717-14.376 34.629c-1.721 3.779-3.604 6.703-4.304 6.703Z" fill="#B6C4F8"/><path d="M382.245 54.473a.231.231 0 0 1-.057-.009c-.163-.057-.209-.35-.148-.826 1.494-3.632 2.447-5.962 2.447-5.962l-1.901 3.82a36.594 36.594 0 0 1 1.382-3.466c1.53-3.363 14.337-29.087 14.337-29.087s-10.829 26.405-12.361 29.769c-1.477 3.25-3.094 5.761-3.699 5.761Z" fill="#BAC8F8"/><path d="M382.038 53.639c.065-.52.256-1.262.547-2.142l1.901-3.82s-.953 2.33-2.448 5.962Z" fill="#C0CDF9"/><path d="M509.703 178.192a.168.168 0 0 1-.048-.007c-.436-.151.198-2.443 1.417-5.121 1.216-2.677 11.413-23.15 11.413-23.15s-8.622 21.017-9.838 23.692c-1.176 2.588-2.468 4.586-2.944 4.586Z" fill="#B6C4F8"/><path d="M98.257 201.847a.242.242 0 0 1-.055-.006c-.48-.166.22-2.695 1.564-5.648 1.342-2.952 12.582-25.522 12.582-25.522s-9.505 23.171-10.846 26.123c-1.297 2.85-2.719 5.053-3.245 5.053Z" fill="#B0C0F8"/><path d="M9 252.649v-2.66c3.353-6.766 6.4-12.884 6.4-12.884s-3.18 7.75-6.4 15.544ZM518.68 274.086a.184.184 0 0 1-.062-.011c-.567-.196.263-3.193 1.853-6.694.835-1.829 4.865-10.001 8.526-17.392v2.66c-2.844 6.882-5.72 13.799-6.465 15.44-1.537 3.383-3.225 5.997-3.852 5.997Z" fill="#B1C1F8"/><path d="M359.941 236.199c-.018 0-.033 0-.048-.007-.434-.151.198-2.443 1.417-5.12 1.216-2.678 11.413-23.151 11.413-23.151s-8.622 21.018-9.838 23.693c-1.176 2.587-2.465 4.585-2.944 4.585Z" fill="#B4C3F8"/><path d="M261.515 113.206a.18.18 0 0 1-.07-.011c-.622-.216.288-3.508 2.036-7.352 1.748-3.846 16.385-33.243 16.385-33.243s-12.375 30.177-14.123 34.023c-1.69 3.711-3.539 6.583-4.228 6.583Z" fill="#BDCAF9"/><path d="M70.21 270.098a.323.323 0 0 1-.095-.013c-.835-.291.386-4.699 2.729-9.848 2.34-5.151 21.945-44.521 21.945-44.521S78.21 256.13 75.87 261.282c-2.262 4.972-4.743 8.816-5.66 8.816Z" fill="#ACBCF7"/><mask id="mask15_2_7289" style="mask-type:luminance" maskUnits="userSpaceOnUse" x="403" y="423" width="16" height="31"><path d="M403.171 423.443h15.407v29.74h-15.407v-29.74Z" fill="#fff"/></mask><g mask="url('#mask15_2_7289')"><path d="M405.842 453.183h-2.117c.228-.581.487-1.195.775-1.829 1.469-3.228 13.752-27.9 13.752-27.9s-10.384 25.33-11.854 28.555c-.185.405-.368.798-.556 1.174Z" fill="#AFBFF7"/></g><path d="M441.061 285.143a.178.178 0 0 1-.047-.007c-.434-.151.198-2.443 1.417-5.121 1.218-2.677 11.412-23.15 11.412-23.15s-5.903 14.391-8.629 20.873c-1.113 2.258-2.172 4.406-3.137 6.375-.441.647-.805 1.03-1.016 1.03Z" fill="#AFBFF7"/><path d="M442.076 284.114a2982.16 2982.16 0 0 1 3.137-6.375c-.569 1.35-.998 2.358-1.209 2.819-.662 1.453-1.359 2.723-1.928 3.556Z" fill="#C0CDF9"/><path d="M52.694 145.472c-.02 0-.037-.004-.057-.008-.502-.173.233-2.82 1.637-5.91 1.407-3.088 13.168-26.711 13.168-26.711s-9.945 24.248-11.352 27.341c-1.357 2.983-2.844 5.288-3.396 5.288Z" fill="#ABBBF7"/><path d="M90.814 424.723a.161.161 0 0 1-.055-.009c-.489-.168.226-2.753 1.603-5.776 1.372-3.022 12.872-26.119 12.872-26.119s-9.725 23.711-11.097 26.731c-1.326 2.918-2.78 5.173-3.323 5.173Z" fill="#B7C5F8"/><mask id="mask16_2_7289" style="mask-type:luminance" maskUnits="userSpaceOnUse" x="32" y="444" width="5" height="10"><path d="M32.114 444.703h4.494v8.48h-4.494v-8.48Z" fill="#fff"/></mask><g mask="url('#mask16_2_7289')"><path d="M33.196 453.183h-.694c2.31-4.651 4.01-8.067 4.01-8.067s-1.398 3.405-3.316 8.067Z" fill="#AABBF7"/></g><path d="M18.156 32.54a.185.185 0 0 1-.067-.013c-.625-.215.288-3.506 2.036-7.352C21.279 22.642 28.032 9.002 32.5 0h.694c-3.8 9.23-9.65 23.402-10.81 25.957-1.688 3.711-3.542 6.583-4.229 6.583Z" fill="#AABBF7"/><path d="M72.06 41.15a.182.182 0 0 1-.051-.008c-.457-.158.21-2.568 1.49-5.383s11.996-24.338 11.996-24.338-9.063 22.093-10.341 24.908c-1.234 2.72-2.59 4.822-3.095 4.822Z" fill="#B0C0F8"/><path d="M46.63 319.949a.248.248 0 0 1-.075-.013c-.667-.23.308-3.759 2.184-7.879 1.873-4.117 17.554-35.615 17.554-35.615s-13.261 32.332-15.134 36.454c-1.808 3.978-3.792 7.053-4.53 7.053Z" fill="#AABBF7"/><path d="M224.776 250.883a.14.14 0 0 1-.053-.009c-.466-.159.218-2.629 1.53-5.514 1.311-2.882 12.288-24.932 12.288-24.932s-9.284 22.633-10.593 25.516c-1.269 2.786-2.656 4.939-3.172 4.939Z" fill="#A0B3F6"/><path d="M478.049 19.578a.327.327 0 0 1-.093-.014c-.825-.286.381-4.635 2.693-9.716.612-1.35 2.43-5.088 4.768-9.848h2.821c-2.194 5.271-3.955 9.45-4.604 10.88-2.23 4.904-4.677 8.698-5.585 8.698Z" fill="#A9BAF7"/><mask id="mask17_2_7289" style="mask-type:luminance" maskUnits="userSpaceOnUse" x="485" y="418" width="18" height="36"><path d="M485.343 418.967h17.333v34.216h-17.333v-34.216Z" fill="#fff"/></mask><g mask="url('#mask17_2_7289')"><path d="M488.236 453.183h-2.821c6.457-13.142 16.882-34.079 16.882-34.079s-8.451 20.607-14.061 34.079Z" fill="#A9BAF7"/></g><path d="M317.873 447.472a.228.228 0 0 1-.07-.009c-.647-.225.296-3.634 2.109-7.616 1.81-3.984 16.969-34.428 16.969-34.428s-12.819 31.255-14.63 35.237c-1.748 3.844-3.663 6.816-4.378 6.816Z" fill="#A0B3F6"/><path d="M338.849 357.29a.233.233 0 0 1-.088-.015c-.813-.28.373-4.572 2.653-9.583 2.279-5.014 21.358-43.332 21.358-43.332s-16.132 39.336-18.411 44.35c-2.2 4.836-4.615 8.58-5.512 8.58Z" fill="#B9C7F8"/><path d="M341.594 182.543a.175.175 0 0 1-.067-.011c-.625-.214.288-3.508 2.033-7.352 1.751-3.847 16.388-33.244 16.388-33.244s-12.378 30.18-14.126 34.024c-1.687 3.711-3.538 6.583-4.228 6.583Z" fill="#9BAFF6"/><path d="M242.258 424.179a.271.271 0 0 1-.086-.013c-.77-.266.354-4.323 2.51-9.061 2.155-4.736 20.188-40.958 20.188-40.958s-15.25 37.184-17.404 41.92c-2.079 4.574-4.361 8.112-5.208 8.112Z" fill="#BECBF9"/><path d="M284.828 332.365a.264.264 0 0 1-.081-.013c-.702-.243.324-3.945 2.293-8.27 1.968-4.328 18.431-37.396 18.431-37.396s-13.923 33.947-15.891 38.274c-1.899 4.177-3.982 7.405-4.752 7.405Z" fill="#BDCAF9"/><path d="M430.66 77.677a.285.285 0 0 1-.086-.014c-.757-.262.351-4.26 2.473-8.93 2.124-4.668 19.896-40.361 19.896-40.361s-15.029 36.642-17.15 41.312c-2.051 4.507-4.298 7.993-5.133 7.993Z" fill="#A7B8F7"/><path d="M305.087 68.25a.12.12 0 0 1-.056-.01c-.524-.18.241-2.942 1.708-6.168 1.467-3.23 13.752-27.902 13.752-27.902s-10.387 25.328-11.856 28.553c-1.414 3.117-2.969 5.528-3.548 5.528Z" fill="#AABBF7"/><path d="M187.946 17.311a.235.235 0 0 1-.081-.01c-.712-.248.329-4.009 2.327-8.404.547-1.204 2.202-4.6 4.314-8.897h2.41c-1.971 4.736-3.564 8.519-4.141 9.789-1.931 4.244-4.045 7.522-4.829 7.522Z" fill="#B0C0F8"/><mask id="mask18_2_7289" style="mask-type:luminance" maskUnits="userSpaceOnUse" x="193" y="424" width="17" height="30"><path d="M193.886 424.002h15.408v29.181h-15.408v-29.181Z" fill="#fff"/></mask><g mask="url('#mask18_2_7289')"><path d="M196.911 453.183h-2.41c5.597-11.384 14.414-29.093 14.414-29.093s-7.152 17.438-12.004 29.093Z" fill="#B0C0F8"/></g><path d="M117.012 91.454a.247.247 0 0 1-.058-.009c-.512-.177.236-2.882 1.673-6.04 1.437-3.159 13.459-27.306 13.459-27.306s-10.167 24.788-11.604 27.946c-1.384 3.05-2.906 5.409-3.47 5.409Z" fill="#B0C0F8"/><path d="M420.026 242.635a.22.22 0 0 1-.078-.013c-.702-.243.321-3.945 2.29-8.27 1.966-4.327 18.434-37.398 18.434-37.398s-13.925 33.949-15.891 38.274c-1.899 4.177-3.982 7.407-4.755 7.407Z" fill="#9EB1F6"/><path d="M139.569 49.125a.189.189 0 0 1-.06-.008c-.537-.184.246-3.005 1.745-6.303 1.5-3.296 14.044-28.492 14.044-28.492s-10.606 25.865-12.105 29.163c-1.45 3.18-3.034 5.64-3.624 5.64Z" fill="#BDCAF9"/><path d="M303.385 269.283a.228.228 0 0 1-.08-.014c-.712-.246.328-4.008 2.327-8.403 1.999-4.395 18.727-37.99 18.727-37.99s-14.146 34.489-16.144 38.882c-1.931 4.244-4.045 7.525-4.83 7.525Z" fill="#BAC8F8"/><path d="M378.496 131.968a.274.274 0 0 1-.085-.013c-.768-.266.356-4.323 2.51-9.061 2.154-4.738 20.19-40.958 20.19-40.958s-15.252 37.184-17.404 41.92c-2.081 4.574-4.363 8.112-5.211 8.112Z" fill="#B9C7F8"/><mask id="mask19_2_7289" style="mask-type:luminance" maskUnits="userSpaceOnUse" x="360" y="445" width="6" height="9"><path d="M360.804 445.263h4.494v7.92h-4.494v-7.92Z" fill="#fff"/></mask><g mask="url('#mask19_2_7289')"><path d="M361.913 453.183h-.647c2.149-4.336 3.736-7.523 3.736-7.523s-1.301 3.176-3.089 7.523Z" fill="#B4C3F8"/></g><path d="M347.964 30.184a.21.21 0 0 1-.065-.011c-.58-.199.268-3.256 1.89-6.828C350.86 20.994 357.114 8.36 361.267 0h.647c-3.528 8.571-8.947 21.7-10.026 24.069-1.567 3.448-3.287 6.115-3.924 6.115Z" fill="#B4C3F8"/><path d="M491.893 341.519a.25.25 0 0 1-.09-.015c-.803-.275.371-4.509 2.618-9.452 2.249-4.944 21.067-42.74 21.067-42.74s-15.914 38.799-18.161 43.743c-2.169 4.773-4.551 8.464-5.434 8.464Z" fill="#B0C0F8"/><path d="M36.049 396.627a.32.32 0 0 1-.093-.016c-.825-.284.381-4.633 2.693-9.716 2.31-5.079 21.65-43.924 21.65-43.924s-16.356 39.876-18.666 44.955c-2.229 4.907-4.677 8.701-5.584 8.701Z" fill="#A1B4F6"/></g></svg>