<svg width="158" height="126" fill="none" xmlns="http://www.w3.org/2000/svg"><circle cx="78.524" cy="62.819" r="62.819" fill="#EDFBFE"/><circle cx="78.524" cy="69.101" r="53.396" fill="#fff"/><mask id="mask0_2_6945" style="mask-type:luminance" maskUnits="userSpaceOnUse" x="0" y="36" width="158" height="90"><path d="M0 36.435h157.047v89.458H0V36.435Z" fill="#fff"/></mask><g mask="url('#mask0_2_6945')"><path d="M156.244 104.863c-1.163-.669-2.38-1.201-3.578-1.737-9.559-4.283-19.602-5.907-29.588-6.14-10.212-.237-20.407.921-30.566 2.243-10.74 1.397-21.518 3.042-32.316 2.369-5.377-.333-10.667-1.358-15.925-2.998-4.426-1.381-9.101-2.946-13.62-1.515-1.084.343-2.128.876-3.122 1.575-.358.25-.043.635.24.436.147-.1.298-.2.449-.297l3.517-.486c-6.411 1.631-12.698 4.121-18.796 7.399-3.554 1.91-7.042 4.077-10.464 6.433-1.06.729-2.353 1.358-2.467 3.301-.093 1.565.66 2.706 1.675 3.069 1.643.586 3.408.246 5.07.036l6.284-.792c4.19-.532 8.38-1.061 12.568-1.59 2.046-.257 4.089-.516 6.132-.776 2.14-.27 4.291-.672 6.438-.812.5-.037 1.365-.12 1.206 1.012-.03.209-.157.416-.255.576-.182.292-.418.549-.622.815-.742.978-1.482 1.957-2.224 2.932-.318.423-.936.962-1.118 1.544-.488 1.541 1.33 2.15 2.011 2.18.79.033 1.609-.183 2.39-.303 1.056-.16 2.11-.333 3.163-.512 2.062-.346 4.12-.726 6.178-1.115 8.213-1.551 16.424-3.275 24.7-3.994 4.143-.359 8.296-.469 12.439-.166.416.03 2.719-.02 1.804 1.444-.206.333-.588.589-.84.839-.726.729-1.46 1.434-2.178 2.176-.62.643-1.023 1.671-.57 2.729.628 1.471 2.489 1.135 3.509 1.092 3.827-.17 7.667-.706 11.486-1.102a867.488 867.488 0 0 0 24.094-2.795 660.644 660.644 0 0 0 11.911-1.668c.954-.139 1.906-.286 2.86-.432.638-.1 1.502-.007 2.088-.433 1.399-1.018-.408-2.612-1.063-3.088-.951-.689-1.969-1.179-3.005-1.541a168.294 168.294 0 0 0 18.761-6.507c.668-.276 1.813-.412 2.086-1.544.218-.898-.196-1.541-.742-1.857Zm-77.448-46.05c.602-.67 1.206-1.338 1.808-2.007l-.08-.146c.515-.054.833-.796.788-1.441-.045-.65.278.545 0 0-1.042-2.067-2.486-6.48-1.601-8.66.442-1.088 1.248-1.87 2.088-2.49.597-.436 1.26-.822 1.948-.752.915.097 1.657.975 2.192 1.91.538.94.962 1.994 1.646 2.766.565-2.303.657-4.766 1.317-7.025.657-2.263 2.131-4.427 4.045-4.53 1.773-.093 3.347 1.658 4.047 3.708.7 2.053.713 4.356.715 6.586.713-1.075 1.527-2.09 2.539-2.67 1.015-.578 2.264-.658 3.207.087 1.201.949 1.606 2.946 1.505 4.726-.098 1.78-.585 3.491-.731 5.269-.019.223-.029.462.053.662.087.21.265.34.437.436 1.259.715 2.871.476 3.878 1.664-9.95.086-19.896.722-29.8 1.907Z" fill="#A2DDAC"/></g><path d="M137.3 96.71c-.882-.516-1.897-.553-2.865-.406.56-.926.08-2.367-.723-2.94-.806-.575-1.789-.518-2.709-.415.658-1.069.689-2.68.074-3.787-.617-1.109-1.834-1.621-2.859-1.205.848-1.864.085-4.456-1.397-5.518-1.482-1.065-3.419-.752-4.855.406-1.437 1.155-2.425 3.035-3.077 5.015l2.051 12.527c5.77.02 11.539.033 17.307.05.164.003.341 0 .477-.117.196-.166.241-.505.233-.805-.048-1.221-.771-2.29-1.657-2.805ZM34.097 90.69c.334 2.821.437 5.687.31 8.535a132.508 132.508 0 0 0-20.058 6.59l.072-.309c-.747.193-1.556-.586-1.604-1.541-.045-.959.682-1.854 1.442-1.778-1.044-1.091-.607-3.43.549-4.323 1.155-.888 2.66-.639 3.92-.003-.287-1.518-.239-3.215.46-4.496.703-1.285 2.182-1.947 3.25-1.158-.146-2.803 1.185-5.608 3.175-6.89 1.988-1.277 4.522-1.021 6.377.546.5.423.96.942 1.29 1.578.502.955.684 2.117.817 3.248Z" fill="#286053"/><path d="M100.75 103.991a110.785 110.785 0 0 0 1.646 3.019c.167.296-.029.679-.339.669l-17.784-.586c.233.865.35 1.378.35 1.378-40.569 7.461-57.462-3.651-57.462-3.651l5.213-42.642s2.505-2.393 5.614-5.275c1.69-.972 3.657-1.864 5.303-1.974 2.338-.156 3.63-3.774 4.275-6.5.822-.652 1.468-1.108 1.847-1.284 2.529-1.175 4.72 5.148 5.396 8.49.676 3.34 1.77 2.798 1.77 2.798 6.748.906 5.82 5.691 7.003 10.75 1.18 5.059 2.107 4.153 2.107 4.153 2.049.969 3.612 2.277 4.739 3.881.243-.496.527-.965.861-1.404 0 0 14.826-7.349 16.326-4.95 1.293 2.08-.053 6.497 2.062 9.123.04-1.461.23-2.466.562-2.752 0 0 3.755-1.109 10.463-.57 1.991 1.328 4.901 2.833 7.798 2.76 4.913-.124 8.772 1.141 9.117 1.257.678.26 1.362.53 2.062.82l5.351 20.603s-15.767 2.896-24.28 1.887Z" fill="#F5BF19"/><path d="M95.758 88.513c-.79-3.059-2.26-5.925-4.831-7.449-3.204-1.9-2.335-6.04-2.818-8.76.027 2.078-.532 4.108-.37 6.188.06.812.249 1.644.66 2.286.49.765 1.256 1.102 1.926 1.538a15.233 15.233 0 0 1 3.44 3.118c.756.925 1.426 1.96 1.993 3.079Zm26.443 5.87a43.39 43.39 0 0 0-15.441-.326c-.427.067-1.625-.55-1.476-1.268.013-.057-.027-.426-.053-.556-.106-.01-.255-.063-.334-.073a4.3 4.3 0 0 0-.461-.023c-.724-.01-1.456.05-2.174.15a16.483 16.483 0 0 0-4.28 1.184c-.164.07-.34.057-.514 0l.063.623c.019.12.037.24.053.359.008.07.008.126.006.176a67.23 67.23 0 0 0 .538 3.888c-.87-2.057-1.54-4.047-1.644-5.452-.007-.15-.023-.296-.037-.442-.103-.173-.156-.35-.04-.44l-.007-.063a15.927 15.927 0 0 0-1.227-3.222 15.003 15.003 0 0 0-2.836-3.877 13.092 13.092 0 0 0-1.824-1.5c-.665-.453-1.396-.793-1.987-1.395-1.074-1.098-1.543-2.772-1.596-4.47-.064-2.126.583-4.2.38-6.326-.083-.829.699-.443.757.146.027.27.04.54.043.809 1.69-.087 3.845-.004 4.11.948.45 1.594-1.791 5.705 1.124 6.713 2.915 1.005 3.96 6.04 3.811 7.721-.048.55.008 2.15.167 4.144 1.686-.623 3.424-.996 5.184-1.069 1.034-.043 2.062-.04 3.013.54.435.262.915.672 1.209 1.198a44.292 44.292 0 0 1 14.542.499c.424.086.92.353 1.188.795.206.336.122.686-.257.61ZM87.696 90.26c-.045-.034-.09-.07-.138-.097-.262-.153-.57-.123-.848-.096-2.253.186-4.487.842-6.6 1.847.152.213.298.432.438.655 1.058-.243 2.038-.808 3.056-1.228 1.012-.422 2.065-.692 3.117-.902.323-.066.65-.123.975-.18ZM63.432 68.49c-.962-4.795-.413-9.194-6.853-10.056 0 0-1.095.542-1.77-2.8-.515-2.549-1.912-6.825-3.669-8.193a64.46 64.46 0 0 0 1.712 7.778c.496 1.717 1.047 4.506 2.733 4.898 1.558.363 3.228-.582 4.648.67 1.212 1.068 1.318 3.031 1.776 4.645.32 1.132.814 2.154 1.423 3.059ZM93.89 90.414c-2.16.795-4.402.988-6.615 1.414-1.108.213-2.2.5-3.26.959-.899.396-1.776.845-2.7 1.108 4.817 9.009 5.104 13.775 3.217 14.197-.493-1.996-3.016-11.498-7.737-17.09 0 0-.784-.488-1.677-1.467.09.12.161.263.209.41.056.166.164.788-.127.755a58.558 58.558 0 0 0-6.011-.353 57.301 57.301 0 0 0-10.623.952 58.412 58.412 0 0 0-5.22 1.221c-.735.21-1.62.673-2.336.16a1.922 1.922 0 0 1-.562-.692c-3.62.955-7.24 1.904-10.86 2.859-.33.083-.623-.56-.68-.935-3.389.921-6.694 2.05-9.927 3.67-.464.23-1.079-1.154-.67-1.357 3.498-1.754 7.081-2.952 10.757-3.924.334-.087.628.569.681.942 3.573-.939 7.148-1.877 10.723-2.82.345-.09.663.577.681 1.04a.375.375 0 0 0 .149.02c.108 0 .215-.02.323-.044.191-.037.377-.1.565-.153.445-.133.888-.26 1.333-.38a56.915 56.915 0 0 1 21.187-1.637.53.53 0 0 1 .291.14c-1.055-1.195-2.218-3.062-2.396-5.595-.336-4.789-2.53-8.4-6.917-10.477 0 0-.734.713-1.73-2.702-1.43-1.378-2.535-3.251-3.054-5.431-.403-1.698-.67-3.984-2.372-4.257-1.598-.26-3.278.593-4.678-.812-.594-.592-.967-1.464-1.261-2.323a54.203 54.203 0 0 1-1.037-3.471 66.603 66.603 0 0 1-1.505-7.248.29.29 0 0 1-.003-.084c-.159 0-.318.024-.48.08.144-.133.303-.246.472-.333 0 0 4.434-2.393 6.218-1.537 1.786.852.98 9.478 4.368 9.798 3.387.32 5.178 2.24 6.072 9.694.895 7.458 4.479 4.26 6.368 9.372 1.654 4.476 1.402 11.888 4.447 14.81a21.872 21.872 0 0 1 1.707 1.844c2.16-1.052 4.458-1.738 6.772-1.93.535-.047 1.018.016 1.474.389.246.2.413.386.72.4.302.016.605-.074.901-.137 1.246-.28 2.492-.563 3.737-.846.157-.033.371.173.541.43.549-.01 1.11 1.154.525 1.37Zm-54.91-9.708c-.17.096-1.333.183-1.637-.087a24.792 24.792 0 0 0-3.581 2.41c.45-.057.906-.097 1.357-.133 1.53-.117 3.064-.257 4.458-1.135 1.439-.905 2.73-2.183 4.118-3.205a46.73 46.73 0 0 1 2.176-1.518 120.161 120.161 0 0 0-6.89 3.668Zm-8.687 3.584c2.184-2.106 4.617-3.754 7.206-4.922.14-.063 1.052-.097 1.442.083a77.453 77.453 0 0 1 3.435-1.867 82.612 82.612 0 0 1 9.641-4.137l.528-.183.368-.183c.032-.013.072-.003.112.017 2.899-.985 5.928-1.824 8.931-1.704.154.007.983.023 1.06.296.085.296-.5.26-.63.253-1.509-.06-3.184.273-4.74.659a48.042 48.042 0 0 0-4.126 1.235c.024.06.037.106.024.113a62.32 62.32 0 0 0-5.303 2.859 51.016 51.016 0 0 0-4.485 3.038c-1.36 1.035-2.642 2.366-4.123 3.109-2.402 1.201-5.177.422-7.562 1.557-.034.033-.069.063-.103.097a.543.543 0 0 1-.334.133 6.658 6.658 0 0 0-.498.336c-.107.08-.332-.203-.485-.47-.22-.07-.49-.19-.358-.319Zm1.391-13.166c3.416-3.068 7.214-5.068 11.171-6.752.2-.084.697.579.87.912a.871.871 0 0 0 .11-.057c.337-.186.648-.472.966-.709a35.302 35.302 0 0 1 6.58-3.847c.318-.14.941 1.085.928 1.091a35.154 35.154 0 0 0-6.014 3.438c-.469.33-.917.716-1.391 1.029-.376.25-.78.396-1.174.146-.133-.083-.395-.323-.628-.612-3.71 1.624-7.27 3.56-10.488 6.453-.214.19-1.028-1.002-.93-1.092Z" fill="#DA8917"/><path d="M119.022 92.073a.38.38 0 0 0 .074-.2c.31-1.733.156-3.524-.003-5.28-.018-.207-.045-.437-.188-.573-.185-.177-.493-.113-.676.07-.185.18-.275.442-.355.695a38.868 38.868 0 0 0-1.304 5.422l2.237-.054c.077-.006.162-.02.215-.08Zm-1.702 28.405a.178.178 0 0 0 .043-.023 6.496 6.496 0 0 0-.035-.103c-.013.013-.037.027-.037.033.005.034.019.063.029.093Zm.514.51c.008.03.061.07.077.056.069-.04.133-.096.199-.15-.008-.026-.019-.056-.026-.086-.077.02-.154.033-.226.066-.018.01-.034.084-.024.114Zm5.537-34.875c-.066-.003-.135-.017-.204-.003-.016.003-.043.076-.035.11.008.033.051.05.106.1.043-.047.093-.097.141-.154.005-.01-.003-.053-.008-.053Zm-7.758 16.72c-.026.057-.053.107-.079.156.013.014.034.034.04.03.037-.03.066-.063.095-.096 0-.003-.018-.03-.056-.09Zm.297 11.725c.014.006.027.01.037.013a.174.174 0 0 0 .03-.036c-.014-.004-.03-.017-.04-.01-.011.003-.019.02-.027.033Zm3.538 2.632-.039.01.029.027.01-.037Zm-3.039-31.773c.005-.003.002-.023.005-.04-.013-.003-.027-.01-.043-.016a.496.496 0 0 1-.005.066c.016-.003.029-.003.043-.01Zm-.406 12.367c-.011.004-.029.004-.029.004-.003.036-.003.076-.005.11h.037l-.003-.114Zm.867 21.114a.93.93 0 0 0 .021-.117c-.061-.023-.119-.04-.18-.06a.631.631 0 0 1-.022.073c.061.037.122.07.181.104Zm2.743-1.262c.013-.01.029-.02.045-.033-.021-.033-.037-.067-.059-.097-.013.01-.039.03-.037.034a.678.678 0 0 0 .051.096Zm2.894-15.565c.026-.017.05-.043.074-.067-.016-.01-.032-.016-.045-.026a.947.947 0 0 1-.064.063c.011.013.03.037.035.03Zm-6.907 13.202.04-.03a.552.552 0 0 0-.024-.043c-.018.017-.04.033-.061.053.016.004.032.014.045.02Zm6.557-16.427-.011-.05-.018.043.029.007Zm.636-3.85c.013.006.029-.01.045-.02-.029-.004-.053-.014-.079-.017.01.013.021.037.034.037Zm.109 12.626-.04.017.04.023v-.04Zm-1.855.752.034-.03a.157.157 0 0 0-.024-.04 3.16 3.16 0 0 0-.05.054c.013.003.026.013.04.016Zm-1.201-11.485c-.021-.283-.05-.572-.162-.832-.111-.256-.323-.476-.585-.512-.271-.037-.541.14-.703.382-.161.24-.236.533-.299.822a12.953 12.953 0 0 0-.244 3.784l.164.017c.623.067 1.246.14 1.871.206a28.848 28.848 0 0 0-.042-3.867Zm1.818 4.213c.016.034.027.09.048.1.032.014.069-.013.103-.023-.026-.05-.053-.096-.079-.143-.024.02-.048.043-.072.066Zm-.201-14.207.058.073a.775.775 0 0 0 .058-.103c.003-.007-.032-.046-.037-.043-.029.023-.053.05-.079.073Zm.4 10.72a.502.502 0 0 0-.064-.16c-.008-.013-.061.02-.093.033l.061.22c.053-.05.099-.077.096-.093Zm-3.843 17.123-.077.049c.021.02.045.04.066.064a.303.303 0 0 1 .027-.054c-.008-.02-.011-.039-.016-.059Zm-2.849-17.686c-.029-.013-.066.014-.101.02l.048.113c.032-.01.063-.023.095-.033-.016-.033-.021-.09-.042-.1Zm-1.585-4.719h.098a.474.474 0 0 0-.021-.076c-.032.006-.064.02-.096.033a.425.425 0 0 0 .019.043Zm.124-.586c.022-.006.043-.016.061-.023-.005-.017-.013-.033-.018-.05-.011.007-.029.007-.032.017-.011.016-.008.036-.011.056Zm-3.461 13.952c.003-.004.008-.027.011-.037-.011-.003-.027-.013-.037-.013-.006 0-.011.023-.014.036.014.004.027.014.04.014Zm5.182-.406c.015-.01.042-.027.042-.03a.739.739 0 0 0-.035-.11c-.013.01-.039.026-.039.033.005.033.021.07.032.107Zm-5.51-9.439c-.093-.43-.297-.922-.7-.982-.228-.033-.451.087-.634.24-.882.726-1.092 2.043-1.237 3.232-.064.515-.125 1.028-.188 1.544l.127 1.697c.734.003 1.468-.013 2.2-.053.106-.01.222-.02.294-.107a.48.48 0 0 0 .074-.236c.223-1.774.443-3.594.064-5.335Zm-1.024 23.293c.008.033.024.063.038.097a.64.64 0 0 0 .031-.047 3.169 3.169 0 0 1-.039-.096c-.011.016-.032.033-.03.046Zm.157-12.813c.013-.036.029-.073.04-.11 0-.006-.027-.023-.04-.036-.013.033-.032.066-.037.103-.003.01.024.03.037.043Zm3.003 10.32c.008.047.042.094.066.137.003 0 .037-.017.042-.033.014-.037.035-.087.024-.117-.026-.073-.069-.133-.124-.233-.003.113-.016.183-.008.246Zm-1.938-3.091c-.005-.014-.008-.034-.01-.037-.014 0-.027.007-.059.017.035.01.051.013.069.02Zm-.138-6.63c.011.007.03-.006.043-.013-.008-.013-.011-.037-.024-.043-.008-.007-.026.003-.04.006.006.02.011.044.021.05Zm4.859.882.031-.113c-.026.03-.055.067-.082.1.016.003.048.017.051.013Zm.045-.153a.212.212 0 0 0-.014.04c.006-.01.016-.017.022-.027a.104.104 0 0 0 .029-.013h-.037Zm.098-.023c-.022.006-.043.016-.061.023.026.003.055.003.084.003-.007-.006-.018-.026-.023-.026Zm-.252 13.036c.029.02.058.043.106.076.024-.056.045-.109.066-.163-.032-.016-.079-.06-.095-.046-.035.03-.053.086-.077.133Zm.246-10.69c-.031-.017-.063-.05-.09-.047-.018.004-.026.067-.042.104.032.01.063.023.095.033l.037-.09Zm-1.168-18.78c.026.066.039.106.055.146.043-.053.088-.103.133-.156.143.003.294-.007.387-.117a.58.58 0 0 0 .103-.243c.461-1.807.48-3.747.056-5.564-.069-.303-.178-.632-.438-.762-.225-.11-.501-.023-.689.146-.193.17-.315.413-.426.65-.825 1.736-1.172 3.59-1.371 5.527.727.187 1.469.303 2.213.353a.471.471 0 0 0-.023.02Zm.352 16.627c.016-.05.034-.107.048-.16a.187.187 0 0 0-.032-.02c-.029.05-.053.103-.08.157.016.006.032.01.064.023Zm-.392 8.593c-.008.053.029.12.045.183.042-.033.087-.057.09-.08 0-.067-.016-.133-.024-.2-.04.034-.103.057-.111.097Zm.721-.912.071-.08c-.016-.033-.026-.086-.047-.093-.032-.007-.067.02-.101.033.026.047.05.093.077.14Zm.752-14.517c.13-1.148.003-2.306-.122-3.454-.082-.756-.196-1.578-.705-2.1-.06-.06-.127-.12-.206-.134a.384.384 0 0 0-.223.057c-.485.266-.673.898-.798 1.474a31.541 31.541 0 0 0-.532 3.265c-.048.426-.088.869.045 1.278l.389.117c.589-.044 1.177-.084 1.765-.124.106-.006.223-.02.297-.103.064-.07.082-.176.09-.276Zm-.956 7.239c.01.003.023-.017.047-.03l-.082-.01c.011.013.021.036.035.04Zm-9.595-57.226c-.01.033-.031.076-.021.096.003.007.008.01.011.017.008-.037.013-.07.018-.107-.002-.003-.005-.006-.008-.006Zm-2.971-3.511c0-.01 0-.017.003-.024-.005 0-.013 0-.018.004l.015.02Zm21.709 59.425c-.008-.05-.04-.096-.061-.143-.013.04-.029.077-.042.113l.045.123c.018-.033.061-.066.058-.093Zm-21.722-59.416.013-.01-.015-.02.002.03Zm.035-.27c-.008.114-.014.177-.019.237l.223-.043c-.093-.09-.138-.13-.204-.193Zm-.56 6.89.106.103c.014-.05.038-.093.03-.106a.139.139 0 0 0-.08-.067c-.013 0-.037.043-.056.07Zm1.137.586c.016.026.032.07.051.073.026.003.058-.023.087-.033-.018-.03-.032-.077-.05-.08-.027-.004-.058.026-.088.04Zm-1.094-1.96c-.016.033-.056.076-.048.096.016.053.053.093.085.146.037-.053.077-.103.074-.11a1.205 1.205 0 0 0-.111-.133Zm.273-.553c.021-.03.045-.057.066-.083-.005-.02-.011-.04-.013-.057-.024.017-.053.033-.072.06-.005.014.011.053.019.08Zm.135-2.706c.003.024.058.05.082.04.019-.006.045-.08.035-.1-.016-.03-.056-.04-.088-.056-.01.036-.037.083-.029.116Zm-.101-5.807.016.04.011-.04h-.027Zm-6.498 12.187c.008-.04.034-.086.023-.116-.013-.03-.058-.047-.087-.07-.008.04-.03.086-.021.11.016.033.055.053.085.076Zm-1.911-17.489c.026.017.053.034.08.044.01.003.023-.024.036-.04-.029-.017-.058-.037-.087-.047-.005-.003-.019.027-.03.043Zm-.202 8.906c.22-.016.45-.03.681-.05.011 0 .022-.033.04-.066-.005-.12-.013-.253-.021-.403-.268-.003-.45.153-.641.283-.077.053-.112.11-.059.236Zm-.729 8.936c.022.027.04.053.059.077a.424.424 0 0 0 .04-.097c0-.013-.03-.047-.032-.047-.024.02-.045.044-.067.067Zm9.139-7.804c-.013-.014-.056.03-.204.12.1.036.153.066.206.07.032.006.064-.03.096-.05-.035-.047-.061-.104-.098-.14Zm1.391-1.408c-.01-.02-.021-.04-.029-.063l-.016.043c.016.007.032.013.045.02Zm-8.688-3.847.112.1c.037-.034.06-.057.087-.077-.037-.043-.069-.097-.111-.113-.019-.01-.058.056-.088.09Zm12.309 12.743c-.011.036.029.1.05.166.066-.036.122-.053.156-.093.024-.03.032-.08.04-.13-.061-.013-.119-.03-.178-.043a.214.214 0 0 0-.068.1Zm2.109 53.748c-.016.03.021.103.067.289.055-.143.084-.196.098-.256.005-.033-.032-.11-.04-.106-.045.013-.104.03-.125.073ZM91.427 51.787c-.038.004-.101.044-.104.077-.013.126-.005.26-.005.413.154-.104.22-.223.183-.403-.008-.037-.05-.09-.074-.087Zm.23-3.051c-.002.023.03.046.048.073.01-.04.026-.073.029-.11.003-.01-.021-.03-.032-.043-.016.026-.045.053-.045.08Zm-1.245-6.81c-.003.024.029.054.071.123.005-.113.01-.173.01-.23 0-.013-.02-.03-.031-.043-.019.047-.043.097-.05.15Zm11.261 5.768c.013-.027.037-.057.042-.09.003-.03-.003-.063-.008-.096l-.093.09c.019.033.038.063.059.096Zm23.142 50.233c.014-.006.037-.013.037-.023.006-.036 0-.073 0-.11-.023.01-.047.017-.071.024.01.036.024.076.034.11Zm.04 7.772c-.008.036.013.083.024.133.101.023.207.046.315.073.003-.35-.034-.489-.127-.486-.132.01-.185.136-.212.28Zm-24.306-49.825-.037-.003.018.05.019-.047Zm25.356 37.57s.016-.043.013-.043c-.027-.02-.056-.036-.082-.056l-.016.06c.029.016.055.026.085.04Zm.898-5.38-.042.013.037.026.005-.04Zm-2.754-4.55c.011-.007.027-.017.03-.027.002-.02-.003-.036-.006-.056-.016.01-.034.026-.05.036.008.017.016.03.026.047Zm-.593 37.893c.037.037.074.07.13.12.034-.057.063-.1.092-.143-.037-.037-.079-.11-.108-.1-.043.01-.077.08-.114.123Zm2.486-31.656c-.183.15-.183.15-.228.472.294-.16.294-.16.228-.472Zm.477 15.235c.071-.006.143-.016.228-.023.079-.14.164-.283.249-.429-.461-.363-.477-.366-.888-.143.003.579.04.629.411.595Zm.313-10.876-.016-.03-.019.037.035-.007Zm-2.277-2.912c-.016.11.093.207.18.173.082-.033.122-.113.096-.206-.022-.07-.083-.12-.154-.223-.056.116-.109.18-.122.256Zm2.687 2.54c.022.063.035.133.043.133.05-.007.098-.03.145-.044-.015-.036-.026-.096-.047-.103-.043-.013-.09.007-.141.013Zm3.806 24.417c.024.037.037.054.045.074a2.4 2.4 0 0 0 .101-.137c.003 0-.032-.043-.035-.04-.037.03-.071.067-.111.103Zm.101-.981c-.175-.024-.326.173-.297.372.003.04.04.09.066.1.146.044.324-.143.332-.369-.027-.03-.064-.097-.101-.103ZM99.444 48.06c-.003-.01-.024-.01-.037-.017-.006.02-.008.04-.014.063.016.004.03.007.046.014.002-.02.01-.043.005-.06Zm32.472 56.038c-.019.053-.059.123-.046.163.022.063.077.11.154.206 0-.13.013-.203-.005-.253-.016-.05-.069-.08-.103-.116Zm-.125 3.481h-.037l.021.056.016-.056Zm-2.685 4.583c.024.013.064-.017.096-.027-.043-.057-.08-.116-.128-.163-.008-.01-.05.04-.092.073.045.043.079.093.124.117Zm-.999-14.557c-.13.183-.254.372-.363.579-.035.063-.029.186-.003.263.024.07.101.11.226.23.037-.22.037-.34.079-.433.05-.117.135-.21.204-.317.021-.033.048-.083.045-.12 0-.063-.008-.15-.04-.182-.034-.037-.129-.05-.148-.02Zm1.484 13.788c.027-.01.048-.057.069-.087-.04-.016-.077-.043-.119-.046-.008-.004-.024.066-.035.103.03.013.061.043.085.03Zm-.013-4.283-.029-.077-.032.03c.005.02.005.047.016.053.011.007.029-.003.045-.006Zm.633 9.365.098.146c.038-.066.072-.11.08-.156.005-.023-.048-.087-.061-.083-.042.02-.08.06-.117.093Zm-26.911 7.089c0-.42 0-.42-.093-.649l-.204.778c.172-.076.236-.103.297-.129Zm-19.58-7.053v.183c.047-.023.092-.03.103-.059.013-.027-.003-.087-.021-.114-.014-.02-.053-.01-.083-.01Zm.466-16.943c.01-.08.024-.16.037-.236-.021-.01-.042-.02-.061-.027-.024.07-.05.143-.066.217 0 .003.058.03.09.046Zm.84 17.27c.021.01.058-.027.088-.04-.04-.057-.08-.117-.122-.17-.019.026-.035.056-.07.106.035.037.064.084.104.104ZM83.309 96.4c-.024-.303.05-.49-.188-.543.058.174.1.29.188.543Zm-1.694-6.48c1.307.02 2.616-.08 3.91-.303.121-2.396.238-4.852-.38-7.148-.21-.776-.652-1.644-1.37-1.658-.366-.006-.702.223-.97.506-1.015 1.082-1.153 2.82-1.227 4.393-.069 1.455.106 2.756.037 4.21Zm16.47 10.816c.028.01.047.017.063.02-.003-.013-.005-.033-.01-.033-.014 0-.025.007-.054.013Zm.768-5.917c.008.013.013.037.021.04.013.007.03-.003.042-.003a.194.194 0 0 0-.029-.06c0-.004-.021.016-.034.023Zm-1.116 19.176.048-.01c-.022-.013-.04-.026-.064-.033-.005-.003-.019.017-.03.027.017.006.033.01.046.016Zm-11.868 9.522c-.082.04-.178.073-.16.226.004.017.022.044.035.05.112.027.162-.063.202-.17.008-.023.013-.043.029-.103-.072-.003-.093-.013-.106-.003Zm11.836-39.963c-.026-.004-.055.01-.082.013l.032.083.08-.05c-.009-.016-.017-.046-.03-.046Zm10.617 18.723.04.04c.013-.033.029-.063.037-.1.003-.013-.021-.033-.032-.046a2.78 2.78 0 0 1-.045.106ZM81.752 72.91l.073.087c.01-.03.026-.067.034-.103.003-.013-.027-.05-.032-.043-.026.013-.05.04-.074.06Zm8.58 20.395c.01-.017.021-.037.045-.073-.034-.037-.072-.077-.109-.114-.005-.003-.026.027-.04.04.035.05.07.097.104.147Zm1.733 3.62c-.127.014-.087.144-.053.317.053-.073.082-.1.096-.136.034-.077.063-.19-.043-.18ZM88.591 73.86c.032-.04.055-.093.08-.14-.03-.013-.075-.043-.09-.03-.033.034-.054.09-.083.14.042.017.082.043.093.03Zm.291 6.942c.03-.003.053-.046.096-.083-.03-.05-.05-.113-.088-.15-.013-.016-.077.007-.093.037-.045.067.016.203.085.196Zm-.795 5.98.03.04c.013-.01.023-.022.034-.036a.425.425 0 0 0-.05-.053c-.003.017-.008.033-.014.05Zm-6.172-5.104.055-.014a.34.34 0 0 1-.013-.05c-.013.004-.03 0-.034.01-.008.014-.006.037-.008.054Zm2.175-7.429-.05-.04-.016.02.067.02Zm14.848 29.777c-.003-.004-.019-.007-.03-.01.011.01.027.016.032.029-.002-.006-.002-.013-.002-.019ZM84.024 74.228l.016-.02-.024-.01c0 .014.006.02.008.03Zm1.739 40.796-.008-.044-.016.04.024.004ZM80.71 48.383c.032.02.08.066.093.053.098-.096.212-.183.273-.313.058-.116-.005-.213-.143-.206-.072.15-.146.31-.223.466Zm67.064 53.518a.977.977 0 0 0 .048-.02c-.032-.006-.059-.013-.088-.016l.04.036Zm-6.774 9.791c-.011-.003-.027.004-.037.01l.008.044c.013-.007.026-.01.039-.014-.002-.016-.002-.04-.01-.04Zm5.232-3.83c-.019.003-.032.05-.048.08l.085.04.05-.08c-.029-.014-.061-.04-.087-.04Zm-4.363 4.885c.053-.05.104-.103.149-.146-.014-.053-.014-.09-.022-.093-.026-.01-.069-.027-.087-.01a.473.473 0 0 0-.106.146c-.011.02.005.07.016.103.005.007.037.01.05 0Zm10.684-5.717a4.585 4.585 0 0 1-.173-.2l-.368.36c.199.226.366.419.567.652.268-.473.268-.483-.026-.812Zm3.593-1.884c.024-.013.051-.033.075-.05-.027-.016-.051-.036-.08-.043-.008 0-.018.033-.032.046.014.017.029.05.037.047Zm-2.679-1.444c0 .036.011.076.019.12.01-.017.031-.03.029-.047 0-.04-.014-.08-.019-.12-.01.013-.032.03-.029.047Zm-1.527 2.383c.011-.014.008-.037.011-.054-.019.004-.037.007-.058.014.005.016.01.03.013.05.013-.004.032 0 .034-.01Zm.265-3.012-.002-.147a5.38 5.38 0 0 0-.146-.063c.045.06.09.126.148.21Zm-.288 2.329c-.003.007.029.034.039.03.027-.006.048-.03.072-.046a.839.839 0 0 1-.074-.084c-.016.037-.03.067-.037.1Zm-52.957-1.241.011-.013h-.008l-.003.013Zm.912-10.973c.013.007.035-.01.05-.016-.007-.03-.015-.084-.026-.084-.03 0-.058.02-.095.034.026.023.047.053.071.066Zm-.313 30.242a.579.579 0 0 0 .04.01.58.58 0 0 0-.01-.066.107.107 0 0 0-.04.02c-.003.003.008.023.01.036Zm-.596-19.282c-.008-.034-.01-.07-.021-.1 0-.004-.003-.004-.003-.004.008.037.016.077.021.117l.003-.013Zm.008 0c.032.003.064.02.093.013.018-.003.034-.043.053-.07-.027-.007-.061-.023-.082-.013-.024.013-.043.043-.064.07Zm.602 18.274c-.014-.027-.037-.07-.05-.067-.025.007-.043.044-.067.067.032.013.058.03.088.037.007.003.031-.037.029-.037Zm35.798-9.162c.015-.037.029-.077.045-.113-.014-.017-.027-.03-.043-.047-.013.04-.029.073-.037.113-.003.01.021.03.035.047Zm1.086 1.917c.011.023.024.046.037.07l.016-.054c-.01-.016-.016-.029-.024-.046-.01.01-.031.027-.029.03Zm-1.023-.995.016-.047c-.013-.01-.026-.016-.04-.026l.024.073Zm1.474-.323c.037-.037.074-.07.135-.127-.058-.053-.09-.099-.133-.109-.023-.01-.061.04-.09.063.029.056.059.113.088.173Zm-2.264 4.433a.405.405 0 0 0-.09.05c.014.016.024.033.035.05.032-.017.063-.037.095-.057-.013-.016-.029-.046-.04-.043Zm.138-2.07c-.079.06-.164.126-.087.293.058-.05.119-.09.167-.147.021-.023.026-.093.013-.12-.016-.026-.072-.039-.093-.026Zm-50.82-42.157c-.005.037-.026.09-.016.103a.154.154 0 0 0 .07.03c-.009-.03-.014-.06-.025-.09-.005-.013-.02-.03-.029-.043Zm17.381 7.485c.003-.033-.005-.066-.011-.103-.021.013-.042.023-.063.037.013.036.024.07.037.103.013-.01.037-.023.037-.037Zm-1.134 16.148-.027-.01.008.043.019-.033Zm2.653-7.521c.106-.007.217-.014.299-.08a.538.538 0 0 0 .138-.217c.18-.439.249-.922.297-1.4a19.594 19.594 0 0 0-.167-5.223c-.08-.482-.249-1.045-.687-1.168-.511-.146-.94.416-1.19.922a14.695 14.695 0 0 0-1.478 6.966l-.003.236c.93.023 1.86.01 2.791-.036Zm-1.993 13.741c.045-.03.074-.05.103-.073-.037-.033-.072-.08-.111-.097-.019-.006-.056.04-.082.064.029.036.061.073.09.106Zm1.823-22.794c-.011-.003-.026.03-.04.047.029.016.059.033.088.053.016-.017.026-.033.042-.047a.632.632 0 0 0-.09-.053Zm1.468 5.232c-.029.01-.055.033-.084.05.013.016.023.033.034.05.029-.02.056-.04.085-.057-.011-.017-.029-.046-.035-.043Zm-1.187-5.907c.032.04.061.086.095.12.003.003.04-.047.077-.09-.05-.024-.087-.05-.13-.06-.01-.004-.026.02-.042.03Zm6.133 11.678.029-.014-.024-.023-.005.037Zm-6.435.895c.005-.017.016-.037.016-.057 0-.006-.021-.013-.035-.023-.005.02-.016.04-.016.057 0 .01.024.016.035.023Zm.477-13.156c0-.036-.008-.073-.011-.11l-.063.044.037.11c.013-.014.034-.027.037-.044Zm3.196 37.574c.013-.013.043-.027.043-.04-.006-.037-.019-.077-.03-.116-.015.013-.045.026-.045.033.008.043.022.08.032.123Zm-1.431-34.678c.011-.014.005-.04.008-.06-.016-.007-.029-.017-.045-.024-.005.03-.008.064-.011.094.016-.004.037 0 .048-.01Zm.411 37.384c.021-.027.058-.047.063-.08.006-.037-.015-.08-.029-.12-.031.04-.069.076-.103.116.024.027.045.057.069.084Zm.493-35.574v-.233c-.016-.003-.032-.003-.048-.003l-.008.233c.019 0 .037.003.056.003Zm3.042 8.39c-.008.01.016.057.024.087.032-.01.061-.024.09-.037a4.837 4.837 0 0 1-.031-.11c-.03.02-.064.033-.083.06Zm.096-2.892c.124-.1.154-.286.172-.453a21.107 21.107 0 0 0-.299-6.43c-.022-.106-.048-.216-.122-.282-.09-.077-.215-.067-.324-.034-.506.154-.805.706-1.025 1.222a19.878 19.878 0 0 0-1.49 5.727l.058-.07 2.587.38c.151.023.321.04.443-.06Zm-5.502 32.675c.058.01.119.016.177.023.003-.033.006-.096.003-.1-.058-.01-.117-.01-.175-.013-.003.03-.003.06-.005.09ZM95.15 41.098c-.01.07-.034.123-.02.153.023.053.068.09.105.13.005.003.043-.024.043-.034 0-.043 0-.093-.02-.126-.026-.043-.068-.077-.108-.123Zm9.022 53.691c-.17-.46-.472-.955-.928-.982-.442-.026-.789.4-1.02.812-1.214 2.18-1.203 4.906-.84 7.419l.154.056c.75-.003 1.5-.01 2.25-.013a.274.274 0 0 0 .137-.027c.072-.043.093-.136.112-.223.48-2.326.951-4.825.135-7.042Zm-1.683 17.479c.024.21.016.323.05.406.027.05.112.06.173.09.01-.08.05-.183.026-.236-.037-.08-.116-.13-.249-.26Zm-.814-2.529-.018-.06-.021.056.039.004Zm1.675 10.104.098-.05c-.01-.033-.021-.093-.039-.097-.032-.01-.067.017-.101.03.013.037.029.077.042.117Zm-11.383-.782c0 .01.056.03.106.056.008-.056.027-.11.019-.153-.005-.023-.053-.036-.08-.053-.018.05-.034.1-.045.15Zm-1.791-10.594c.045.06.1.11.15.167.02-.03.04-.06.059-.093-.003-.093-.103-.213-.167-.18-.024.013-.05.093-.042.106Zm-.178 2.157c.005-.007.005-.027.005-.043-.013-.007-.026-.01-.04-.017l-.007.067c.016 0 .029 0 .042-.007Zm1.707-5.358-.035-.013.008.053.027-.04Zm-1.164-1.152c.024.05.045.097.083.173.045-.066.079-.103.098-.149.005-.02-.037-.09-.05-.087-.046.007-.088.04-.13.063Zm.427 7.548c.005.054.024.107.056.247.016-.147.026-.207.029-.267 0-.013-.019-.03-.03-.046-.018.023-.055.046-.055.066Zm.345-22.048c.002.033.037.067.063.117.035-.057.077-.1.1-.157.011-.023-.007-.09-.028-.11-.058-.046-.138.04-.135.15Zm-1.41 15.792c-.011.016-.03.033-.03.053-.002.017.011.04.019.06.003-.04.008-.077.01-.113Zm.53-19.323.13.2c.053-.08.084-.12.114-.167-.056-.036-.11-.08-.167-.106-.019-.007-.05.046-.077.073Zm1.105-13.196c-.01-.016-.027-.043-.032-.043-.019.013-.034.037-.053.053.016.003.027.013.043.017.013-.007.026-.017.042-.027Zm-4 49.462c.011-.017.024-.033.027-.053 0-.017-.016-.034-.024-.05-.01.016-.026.033-.026.05 0 .016.016.036.024.053Zm3.062-46.23.042.016v-.04l-.042.024Zm5.226 21.992c-.01.013-.016.026-.026.04.008.013.013.03.018.046l.008-.086Zm.157 18.906c-.016.01-.035.024-.056.034l.04.02.016-.054Zm-.634 1.112c.005.036.021.073.032.106.013-.013.04-.03.04-.036-.008-.04-.024-.077-.038-.113-.013.013-.037.033-.034.043Zm.787-1.751c-.016-.006-.034-.016-.05-.023.005.01.008.023.01.037.016-.007.027-.01.04-.014Zm1-28.132c.013.027.029.05.044.077l.016-.057-.023-.05c-.011.01-.024.02-.038.03Zm.047-7.079-.04.1c.01.017.022.03.03.047a.52.52 0 0 0 .04-.1c.002-.013-.02-.033-.03-.047Zm-4.977 21.796a25.013 25.013 0 0 0-.976-8.134c-.127-.43-.273-.868-.546-1.201-.275-.33-.712-.53-1.091-.37-.406.17-.61.666-.753 1.125-.915 2.876-1.479 6.11-1.068 9.129l4.243-.339c.056-.004.117-.014.156-.06.03-.04.032-.097.035-.15Zm.037-16.667c.026.043.056.083.085.126l.069-.08c-.022-.03-.038-.083-.061-.09-.03-.006-.064.03-.093.044Zm2.078 16.966c.024.04.047.08.071.124l.061-.087c-.016-.03-.032-.08-.05-.083-.024-.004-.053.03-.082.046Zm-.862-5.674c.016-.036.05-.093.045-.106-.034-.05-.08-.087-.122-.13-.015.04-.029.08-.053.136.04.034.085.067.13.1Zm.337-4.35a.288.288 0 0 1 .056-.016 1.086 1.086 0 0 0-.016-.054c-.01.004-.027.004-.032.014-.008.013-.005.036-.008.056Zm10.477 25.916c.021.026.039.053.058.08.019-.037.037-.067.045-.103.003-.01-.024-.044-.026-.044-.027.02-.051.044-.077.067Zm-69.06-34.595c-.21.016-.21.016-.313.22l.313-.22Zm-3.056-1.83c1.031-.543 2.06-1.092 3.093-1.638.096-.05.2-.107.255-.21.06-.123.045-.273.026-.412l-.453-3.165c-.106-.766-.22-1.545-.522-2.24-.14-.326-.41-.672-.724-.583-.145.04-.257.173-.35.306-.423.623-.59 1.418-.715 2.19-.302 1.894-.673 3.831-.61 5.751Zm1.954-13.343c.04-.036.087-.056.09-.083.005-.057-.013-.12-.021-.18-.038.03-.096.05-.101.087-.01.05.018.11.032.176Zm-.634 2.616.207-.383c-.223.04-.225.037-.26.293-.002.023.03.05.053.09Zm.075 16.068c-.046-.223-.093-.45-.207-.636-.114-.186-.305-.33-.506-.313-.157.017-.295.127-.406.253-.591.666-.63 1.708-.633 2.643-.006 1.241-.308 2.789-.313 4.023.87-.283 1.733-.569 2.6-.855a27.329 27.329 0 0 0-.536-5.115ZM31.99 75.467l.042.003-.019-.057-.024.053Zm-1.763 7.54c.005-.016.013-.032.013-.046 0-.01-.021-.013-.032-.02-.005.017-.013.034-.013.05 0 .007.021.01.032.017ZM56.421 59.18c-.103.126-.172.213-.28.343.2-.007.275-.087.28-.343Zm-23.174 49.828-.01-.05-.02.04.03.01Zm7.53-51.356c-.022 0-.043.007-.064.007.002.017.008.037.01.053.014-.003.032 0 .037-.006.011-.014.011-.037.016-.054Zm.431-1.098c.056-.133-.024-.19-.095-.253-.013-.013-.03-.02-.045-.03-.019.037-.048.07-.053.11-.01.133.056.196.15.213.014.003.035-.02.043-.04Zm-4.71 35.417c-.095-.006-.193-.043-.275-.013-.236.093-.5.58-.514.895-.005.21.204.433.379.4l.326-.25c-.157-.346.27-.602.085-1.032Zm.836 19.499c-.038.03-.072.064-.11.097.025.023.046.046.07.07.029-.02.071-.037.08-.063.005-.027-.027-.07-.04-.104ZM35.889 94.11c.019.027.04.053.058.077.024-.023.045-.047.07-.07-.014-.017-.03-.043-.04-.04-.03.003-.059.02-.088.033Zm5.338 16.051c-.117.11-.106.203 0 .34v-.34ZM37.14 92.659l.087-.02c.003.02-.002.05.006.053.026.014.074.034.082.02a.713.713 0 0 0 .045-.106c.681-.163 1.362-.326 2.043-.486.085-1.954-.042-3.92-.45-5.82-.07-.313-.149-.636-.326-.896-.178-.256-.477-.433-.758-.353-.4.113-.562.643-.644 1.095a20.51 20.51 0 0 0-.114 6.553l.029-.04Zm3.594-14.577c.06-.12.045-.273.024-.409-.151-1.055-.3-2.11-.448-3.165-.111-.769-.223-1.544-.525-2.243-.14-.326-.41-.672-.723-.582-.146.043-.258.172-.35.306-.427.622-.591 1.417-.716 2.193-.302 1.89-.673 3.827-.61 5.75 1.031-.545 2.063-1.09 3.09-1.637.099-.053.202-.11.258-.213Zm-2.558-5.737c.082.093.151.076.21-.034-.08-.09-.151-.083-.21.034ZM35.301 97.58c.063.15.114.267.183.433.137-.103.257-.19.402-.293-.098-.173-.167-.3-.257-.46-.122.117-.217.21-.328.32Zm3.405-30.312c.369-.399.448-.931.4-1.517a27.068 27.068 0 0 0-.27-2.073 12.797 12.797 0 0 0-.471-1.997c-.173-.52-.475-.995-.976-.73-.41.22-.702.813-.89 1.302a6.11 6.11 0 0 0-.16.493.256.256 0 0 0-.04-.057c-.105.09-.23.153-.11.32.016.023.045.036.074.046-.066.293-.117.593-.16.889-.2 1.524-.407 3.101-.426 4.649a.432.432 0 0 0-.053.273c.008.116.106.23.196.25.027.01.053.006.077.006a.316.316 0 0 0 .32-.08c.07-.043.139-.09.213-.143.28-.193.559-.383.837-.576.472-.322 1.029-.605 1.44-1.055Zm-.44-7.618c-.002.017-.008.034-.008.047 0 .007.019.01.027.017.005-.017.01-.034.013-.05l-.032-.014Zm10.45 41.791c.006-.01-.018-.053-.02-.053-.027.013-.054.03-.08.043.013.023.032.05.048.077.015-.024.04-.044.053-.067Zm-.381-5.604c.013.006.03.01.045.013l-.008-.08c-.013.003-.034.003-.042.017-.006.01.002.033.005.05Zm1.466-30.499c-.022-.036-.043-.09-.053-.083-.027.007-.067.03-.075.06-.01.033.008.08.014.12.037-.03.074-.06.114-.097Zm3.43 8.177c.06-.086.065-.203.065-.313.032-2.3.038-4.709-.911-6.749-.281-.596-.79-1.218-1.373-1.062-.525.144-.753.82-.883 1.405a29.981 29.981 0 0 0-.66 7.847l3.52-.998c.09-.023.183-.053.241-.13Zm-4.47 19.44c-.029.006-.058.023-.087.033l.056.076c.024-.023.048-.046.071-.066-.013-.014-.029-.044-.04-.044Zm.711-18.295c0-.007 0-.01-.003-.017a4.174 4.174 0 0 0-.19.057l.193-.04Zm6.742-23.057c-.002-.016-.026-.023-.04-.036-.007.02-.02.036-.023.056-.01.103-.048.217.103.306-.013-.126-.026-.226-.04-.326Zm-6.493-3.448-.021-.046a.243.243 0 0 1-.035.026c.014.027.027.05.038.074.008-.017.013-.037.018-.054Zm6.435 6.883c.005.033.035.063.053.093.01-.037.027-.076.032-.12.002-.01-.021-.03-.032-.046-.019.023-.056.053-.053.073Zm.281 5.491a.146.146 0 0 0-.05.093c-.003.03.029.097.034.097.045-.02.088-.047.146-.08-.085-.073-.117-.117-.13-.11Zm.103 21.263-.037-.01.01.063.027-.053Zm-8.775-20.58c-.005.003.01.036.016.063.027-.02.053-.034.074-.057a.182.182 0 0 0-.016-.053c-.026.016-.053.026-.074.046Zm.109 54.167c.026.02.053.056.08.056.029 0 .058-.033.084-.053-.026-.02-.053-.056-.08-.056-.029-.004-.055.033-.084.053Zm-7.262-10.004c.077-.07.082-.187.08-.29-.053-2.097-.138-4.253-.978-6.143-.114-.253-.242-.503-.443-.69-.199-.182-.485-.289-.742-.209-.39.12-.567.582-.681.985a22.462 22.462 0 0 0-.817 5.874l-.063.196a38.01 38.01 0 0 0 3.416.32c.077.007.164.007.228-.043Zm.98-12.22c.008.039.024.076.035.112.013-.013.04-.03.037-.04-.008-.04-.021-.073-.034-.113-.014.017-.037.03-.037.04Zm6.544-.73c-.032-.016-.069-.053-.098-.046-.018.003-.029.066-.045.106.03.017.066.053.09.043.024-.01.035-.066.053-.103Zm-8.049 27.949c.003-.016-.008-.04-.01-.06-.024.017-.064.037-.064.05.005.034.026.064.042.1.011-.033.027-.06.032-.09Zm8.476-46.586c.034 0 .066-.063.1-.1-.036-.043-.076-.123-.105-.116-.061.013-.117.073-.228.15.114.033.175.07.233.066Zm-.016-8.054c.019 0 .037-.003.056-.006l-.01-.054c-.014.004-.033 0-.035.007-.008.013-.008.037-.011.053Zm-10.819 48.753c-.087-.093-.132-.173-.19-.196-.07-.03-.146.129-.11.249a.19.19 0 0 0 .094.1c.01 0 .02-.003.029-.003.053-.02.098-.08.177-.15Zm10.824-66.571c-.029.01-.055.026-.084.043.029.013.055.03.084.037.008.003.03-.024.03-.037 0-.017-.022-.043-.03-.043Zm-.787 68.368c.013.04.021.1.043.11.026.013.069-.013.1-.023-.018-.037-.032-.087-.058-.11-.019-.014-.056.013-.085.023Zm-14.492-14.853c-.029-.902-.063-1.834-.416-2.65-.058-.139-.138-.285-.262-.352-.154-.08-.342-.027-.48.083-.318.25-.432.712-.512 1.142a27.644 27.644 0 0 0-.445 4.749l.326.26c.631.076 1.264.156 1.898.232-.037-1.154-.074-2.309-.109-3.464Zm-21.812 13.585c-.003.047.032.1.05.15.046-.023.099-.047.099-.053-.008-.057-.03-.114-.046-.167-.037.024-.103.043-.103.07Zm2.69-11.655c-.002.017.04.047.058.07.014-.036.03-.073.037-.11.003-.013-.023-.03-.037-.046-.02.03-.047.053-.058.086Zm.7 12.817c.018.03.042.053.066.069.003.007.019-.019.027-.026-.024-.033-.046-.063-.07-.093-.007.02-.026.046-.023.05Zm-4.606-4.696c-.014.083-.011.169-.016.253.02.01.04.016.06.026.035-.086.072-.166.096-.256.005-.017-.037-.073-.064-.08-.023-.003-.071.03-.076.057Zm4.685-3.714c.056.129.101.239.173.399.015-.353.015-.353-.173-.399Zm30.739-16.98c.048-.09.045-.2.042-.303-.093-1.97-.19-3.96-.686-5.85-.112-.423-.302-.906-.69-.992a.678.678 0 0 0-.5.113c-.483.31-.66.978-.777 1.587-.39 2.054-.79 4.26-.702 6.36a9.263 9.263 0 0 0 3.072-.735c.092-.037.19-.087.24-.18Zm1.129 20.654.013-.05-.024-.047c-.008.01-.029.024-.029.027l.04.07Zm.654 6.796c.016-.01.038-.014.046-.027.005-.017-.006-.043-.008-.063-.022.013-.043.023-.064.036.01.017.018.037.026.054Zm-38.927-1.884c-.008-.02-.024-.057-.03-.053a.495.495 0 0 0-.09.053c.01.02.024.037.035.053a.982.982 0 0 0 .085-.053Zm38.734-16.827c-.111-.825-.268-1.68-.74-2.353-.164-.236-.397-.462-.678-.469-.464-.017-.742.516-.885.972-.798 2.543-.838 5.262-.87 7.934l.035.143a7.04 7.04 0 0 0 2.936.08c.133-.027.27-.06.358-.163.09-.107.104-.26.109-.406a32.701 32.701 0 0 0-.265-5.738ZM3.884 113.722l.13.137c.013-.033.047-.08.04-.097a.3.3 0 0 0-.093-.109c-.008-.007-.043.036-.077.069Zm23.572-2.459c.008-.02-.07-.123-.085-.113-.053.03-.098.09-.167.156.066.064.122.137.133.127a.44.44 0 0 0 .119-.17Zm16.315 3.854c.016.007.03.017.045.023.013-.01.027-.023.043-.033-.014-.013-.032-.043-.038-.04-.018.01-.034.033-.05.05Zm-39.73.163c0-.04-.011-.08-.017-.12-.021.02-.042.043-.066.063l.048.104c.01-.017.034-.03.034-.047Zm23.28-5.515c-.011-.016-.022-.043-.032-.043a4.99 4.99 0 0 0-.196.027c.013.043.013.096.034.12.069.083.127.03.175-.044.01-.016.01-.04.019-.06Zm-4.792-9.561c.024.013.06-.013.09-.02-.019-.033-.032-.08-.058-.093-.019-.014-.056.01-.085.016.018.034.029.084.053.097Zm-2.271-6.154-.032-.006.013.056.018-.05Zm-2.076 4.893.072-.01-.016-.06c-.013.003-.032 0-.04.01-.01.013-.01.036-.016.06Zm4.556 12.014c.027-.017.048-.04.077-.067-.027-.016-.053-.05-.074-.043-.019.003-.03.053-.04.083-.003.004.03.03.037.027Zm1.606-23.303c-.029-.01-.114.103-.124.173-.032.17.002.323.146.41a.38.38 0 0 0 .137-.41.28.28 0 0 0-.159-.173Zm-.641 15.495c.029-.016.082-.026.087-.046.006-.037-.018-.084-.029-.127-.029.013-.08.023-.082.04-.005.043.013.087.024.133Zm18.375-8.946c.01-.01.026-.02.029-.03.005-.02-.003-.036-.006-.056a.85.85 0 0 1-.05.04c.01.017.019.03.027.046Zm4.813-5.88c.023-.047.037-.157.013-.18-.059-.063-.138-.093-.21-.136-.018.03-.034.063-.053.093.04.073.072.16.122.216.027.03.117.03.128.007Zm-.064-10.95c-.005.02-.016.034-.024.054.016.006.04.026.043.023.01-.023.02-.053.031-.077h-.05Zm-3.53 37.145a.39.39 0 0 1 .029.04c.016-.007.032-.013.048-.023-.014-.01-.024-.034-.038-.037-.01-.003-.026.013-.04.02Zm2.727-24.468a1.25 1.25 0 0 0 .016-.057L46 89.95c-.005.02-.016.043-.013.063.002.017.024.027.037.037Zm.933 1.967c0-.003-.027-.02-.04-.033-.016.026-.03.056-.048.086.014.017.024.03.038.043.015-.03.034-.063.05-.096Zm-2.181.476-.008-.043-.019.033.027.01Zm.625-12.926c.016-.007.034-.01.042-.027.003-.01-.01-.033-.015-.053l-.067.043c.014.01.027.023.04.037Zm-.156-23.184c-.008-.016-.01-.036-.021-.056 0-.003-.008-.014-.011-.017-.005.017-.016.033-.021.05.018.01.034.017.053.023Zm.474 5.901c.066-.043.16-.096.196-.163a.424.424 0 0 0 .035-.176.573.573 0 0 1-.183-.054c-.013.13-.032.263-.048.393Zm-1.47 1.075c-.006 0-.009 0-.014-.003-.003.006-.005.013-.005.02.005-.007.01-.01.018-.017Zm-.348.256a.719.719 0 0 1-.241-.12c-.005.104-.01.207-.019.31.085-.063.172-.127.26-.19Zm1.336-7.71c.604-.014.729.638.861 1.257.289 1.348.414 2.776.47 4.167.005.21.076.622-.027.802-.056.093-.21.17-.284.226-.159.12-.318.24-.477.356-.726.54-1.474 1.045-2.181 1.618l-.005.003c-.083.113-.626.087-.62 0 .14-2.27.294-4.603 1.038-6.71.157-.435.337-.861.541-1.264.18-.356.355-.45.684-.456ZM44.9 82.927c-.013.01-.029.02-.042.033.01.004.018.01.032.017.002-.017.008-.037.01-.05Zm-.747-1.797c.1-.123.161-.243-.014-.43l.014.43Zm2.539 9.468c.066-.033.122-.046.12-.06-.004-.1-.017-.196-.03-.296-.042.02-.12.037-.12.057-.002.096.017.193.03.3Zm-.21-21.05c-.023-.036-.04-.086-.06-.09-.03-.003-.061.02-.09.037a7.889 7.889 0 0 0-.555-1.734c-.063-.133-.135-.273-.254-.343-.215-.123-.472.023-.66.193-1.153 1.042-1.397 2.882-1.436 4.54a29.488 29.488 0 0 0 .249 4.716l.124-.044 3.18-1.397c-.37-1.934-.256-4.007-.643-5.911.023.04.047.076.074.116a.942.942 0 0 1 .071-.083Zm-4.789 19.46c-.034.03-.069.06-.1.09.02.026.042.05.068.076.027-.024.064-.04.075-.073.008-.017-.027-.06-.043-.094Zm.758-27.527c-.161-.226-.262-.303-.405-.263-.066.02-.114.136-.17.206.22.07.398.17.575.057Zm.122 50.696c.013-.01.027-.02.037-.03a.304.304 0 0 1-.02-.036c-.022.013-.038.03-.057.046l.04.02Zm.088-4.822c-.03-.017-.061-.037-.093-.047-.01 0-.027.03-.04.047l.096.05c.013-.017.026-.033.037-.05Zm-.615-29.98c.002-.01-.016-.03-.021-.046-.022.02-.04.04-.059.06.014.01.03.017.043.023.013-.01.032-.02.037-.036Zm1.275 2.234c-.016.026-.043.05-.045.08 0 .023.029.05.047.073.01-.037.024-.077.03-.113.002-.01-.022-.027-.032-.04Zm-1.386 31.314a.206.206 0 0 0 .044-.017c-.002-.017 0-.04-.007-.047-.014-.013-.03-.01-.048-.013.005.027.008.05.01.077Zm.946-33.53c-.011-.017-.022-.05-.027-.047-.029.003-.058.02-.085.033.008.013.022.043.03.043.026-.003.055-.02.082-.03Zm-.409 34.175h-.084v.043h.084v-.043Zm-.037 1.658c-.042-.183-.045-.25-.071-.297-.024-.04-.072-.06-.109-.086-.008.056-.032.126-.018.173.018.05.074.083.198.21ZM84.371 43.89l-.06-.15c-.022.02-.046.047-.067.07.01.04.013.1.035.113.02.014.06-.02.092-.033Zm-10.126 61.522c-.016.014-.035.024-.048.044-.003 0 .013.026.021.043.01-.01.026-.017.032-.03.002-.013-.005-.037-.005-.057ZM56.553 47.055c-.027-.01-.067-.04-.08-.027-.029.023-.04.07-.058.11.034.013.071.043.1.03.02-.007.024-.073.038-.113Zm17.953 58.228 4.156-.56-.793-5.564c-.183-1.298-.374-2.62-.925-3.8-.212-.457-.59-.95-1.076-.87-.543.087-.734.783-.8 1.345a79.824 79.824 0 0 0-.562 9.449ZM57.518 60.048c.08-.21.138-.36.244-.643-.294.18-.294.18-.244.643Zm.703 1.83-.01-.06-.027.047.037.013Zm17.153 31.68c-.03.02-.067.04-.085.07-.014.026-.005.066-.01.146.058-.06.097-.09.126-.136.008-.007-.02-.054-.031-.08Zm.713 22.83.405.227c-.109-.343-.204-.383-.406-.227Zm2.62-15.395c-.007.02-.01.036-.015.053.013.003.026.02.04.017.008-.004.013-.027.018-.044-.013-.01-.03-.016-.042-.026Zm-.142-8.9c0 .02.01.037.016.057.002-.033.007-.07.01-.107-.01.017-.024.034-.026.05Zm-1.09-7.248c-.031-.05-.06-.107-.098-.147-.01-.01-.05.027-.09.054.035.05.064.103.103.133.016.013.056-.027.085-.04Zm-20.762 18.657c0 .03.029.057.045.087.01-.037.026-.074.031-.11.003-.014-.015-.034-.026-.05-.018.023-.05.05-.05.073Zm2.279-24.508c-.01.013-.019.023-.032.034l.045.066c.003-.017.008-.033.013-.05l-.026-.05Zm.61.466c-.528-.196-1.002.42-1.228.989-.728 1.843-.654 3.943-.564 5.96.048 1.065.17 1.744.217 2.809l3.234-.629c-.032-2.809-.077-5.691-1.031-8.284-.13-.349-.308-.728-.628-.845Zm1.213-20.54c-.005-.037-.02-.074-.034-.11-.01.016-.032.033-.03.046.006.037.02.07.033.11.013-.017.034-.033.031-.047Zm.154 6.552c.008.04.024.077.035.11.013-.013.037-.03.037-.04-.008-.04-.024-.076-.037-.113-.011.017-.035.033-.035.043ZM57.444 81.51a.271.271 0 0 1-.029-.02c-.005.017-.008.037-.013.053.013-.013.029-.023.042-.033Zm-.588-29.48c-.037-.043-.072-.086-.109-.126l-.063.113c.037.03.074.063.11.08.017.003.04-.043.062-.067Zm22.164 61.06-.007.077c.029-.007.06-.007.092-.014.003 0 .003-.026.003-.036-.03-.014-.058-.02-.088-.027ZM60.314 66.46c.003.007.022 0 .035 0 .005-.016.008-.036.013-.056h-.06c.005.02.005.04.012.057Zm-2.547-1.986c-.27.649-.36 1.374-.437 2.087a76.539 76.539 0 0 0-.395 5.834l-.085.126c1.06-.25 2.12-.5 3.18-.752.086-.02.176-.043.231-.117.059-.08.064-.186.064-.289.024-2.216.045-4.456-.432-6.61-.111-.502-.302-1.065-.734-1.24-.565-.227-1.137.355-1.392.96Zm2.775 7.468v-.1l-.233.034.233.066Zm-.872 3.88c-.008.04-.031.09-.02.12.01.03.052.04.081.06.016-.013.032-.023.045-.036-.034-.047-.069-.097-.106-.143Zm35.915-23.31c-.03-.016-.082.024-.146.047.048.15.138.157.218.177.02.007.047-.037.068-.06-.045-.057-.084-.127-.14-.163Zm-10.448-1.687c.008.02.016.04.022.06l.045-.07c-.014-.013-.027-.036-.04-.033-.008 0-.019.027-.027.044Zm-.601 6.324c.013-.027.029-.057.037-.087.003-.006-.024-.023-.035-.036-.016.033-.031.063-.045.096.014.007.037.027.043.027Zm-5.107 35.553c-.046-.013-.093 0-.149.007.021.057.035.127.053.13.04.007.085-.02.13-.033-.01-.037-.018-.103-.034-.103Zm16.71-37.444c-.01.014-.008.04-.01.06l.07-.01c-.007-.016-.012-.036-.018-.056-.016 0-.037-.004-.042.006Zm1.678-3.011c.015.06.023.126.047.176.019.037.056.057.085.083.013-.016.037-.04.037-.046a1.567 1.567 0 0 0-.087-.223c-.006-.014-.056.006-.082.01Zm-12.518-4.713c.013.017.024.03.034.047l.09-.04c-.01-.017-.023-.047-.034-.043-.029.003-.058.02-.09.036ZM95.855 42.5a10.94 10.94 0 0 0-.116-.133c-.035.08-.059.126-.072.183-.003.013.058.07.072.06.045-.024.076-.074.116-.11Zm1.156 2.632c.029.02.056.044.082.067l.04-.05c-.03-.023-.056-.05-.088-.07-.002 0-.02.033-.034.053Zm.421-3.198c-.005.007-.01.01-.016.017l.024.04-.008-.057Zm-8.213-1.884a.375.375 0 0 1-.016.037c.01-.007.021-.01.034-.02l-.018-.017Zm-8.21 49.033c-.051.08-.104.163-.157.243.09.106.161.27.27.116.114-.156.045-.28-.114-.36Zm-.754-10.031.032-.014-.013-.053c-.005.023-.013.047-.019.067Zm.332-.69c-.03-.016-.059-.036-.088-.046-.008 0-.031.03-.031.044 0 .016.023.05.031.046.03-.007.059-.026.088-.043Zm-.636 3.941c.002.014.008.027.01.04.016-.003.03-.01.043-.013a.286.286 0 0 0-.053-.027Zm0 8.077c.013-.013.029-.023.032-.036.005-.01-.011-.03-.02-.043-.015.02-.03.04-.047.06l.035.02Zm3.305-36.854c-.003-.057.005-.13-.019-.167-.03-.046-.085-.066-.238-.17.074.19.087.267.124.307.03.033.088.02.133.03Zm-2.86-7.738c.005-.02.005-.053-.003-.063-.04-.03-.08-.054-.119-.08-.008.016-.024.043-.019.05.03.05.064.093.099.136.018-.02.037-.026.042-.043Zm6.832 9.119-.015-.053-.014.066.03-.013Zm-1.187-3.698-.034-.02-.006.04.04-.02Zm-2.955 1.574c.026-.013.05-.036.077-.056a1.924 1.924 0 0 1-.072-.083c-.016.033-.034.066-.045.106 0 .003.03.037.04.033Zm.278 1.338c.008.034.024.064.037.097l.032-.043c-.01-.034-.026-.067-.04-.1-.01.016-.031.036-.029.046Zm-25.49-1.927c.013.007.029.014.045.02l.04-.03-.025-.046c-.02.02-.042.036-.06.056Zm-3.727 6.077c.01.03.053.04.114.084.032-.07.072-.133.095-.21.006-.02-.031-.09-.055-.097-.082-.026-.191.127-.154.223Zm-.766 33.883-.085-.01c.014.01.027.034.04.034.013 0 .03-.017.045-.024Zm.247-41.214c-.014.003-.032.003-.037.013-.008.017-.006.043-.008.063.018-.006.04-.01.06-.016l-.015-.06Zm.013 25.35c.016-.01.032-.024.045-.03-.024-.024-.048-.06-.072-.06-.023 0-.047.036-.071.056.032.01.066.023.098.034Zm8.16.858c.01-.037.03-.073.035-.11.002-.016-.019-.036-.03-.053-.018.027-.052.05-.052.073 0 .03.029.06.047.09Zm10.604 39.088c.01.017.027.053.032.05.032-.01.064-.03.095-.047-.01-.016-.026-.049-.037-.049-.032.01-.06.03-.09.046ZM53.023 48.01c.059-.017.114-.05.194-.083-.056-.063-.088-.107-.098-.1-.061.037-.117.087-.175.133.026.017.058.057.08.05Zm-2.422 67.583c.005-.017.008-.037.013-.053-.01-.007-.024-.01-.034-.017-.005.02-.01.037-.01.053 0 .007.02.01.031.017ZM72.933 85.52c.076-.073.15-.12.145-.143-.013-.076-.058-.146-.087-.22-.043.037-.111.07-.114.11-.005.07.03.144.056.254Zm-20.43-22.574a.657.657 0 0 0 .083-.036c-.005-.014-.01-.037-.016-.037a.75.75 0 0 0-.08.027c.006.016.014.046.014.046Zm-3.09 47.392c.006 0 .011-.023.017-.04-.016-.003-.032-.013-.045-.013-.008 0-.011.026-.016.043.016.003.029.013.045.01ZM72.08 73.852c.014-.01.035-.016.037-.03.006-.036.003-.076.003-.116-.026.01-.053.017-.077.027l.037.12Zm-15.965-3.354c0-.01-.03-.044-.032-.044-.021.02-.058.047-.056.067.005.033.032.06.05.093.014-.04.03-.076.038-.116Zm-.125 26.478c.043.003.082-.01.135-.017-.029-.053-.042-.103-.066-.11-.026-.006-.064.017-.087.04-.008.007.01.087.018.087Zm.448 4.702c-.016-.033-.026-.09-.048-.096-.024-.01-.058.023-.09.04.024.043.045.086.07.129.02-.026.044-.046.068-.073Zm-.79 13.875c.03-.007.059-.023.085-.033a.252.252 0 0 0-.08-.047c-.007-.003-.031.023-.031.037 0 .013.018.043.026.043Zm-4.367-.536c.005-.017.007-.03.015-.05-.02 0-.04 0-.06-.003.005.016.005.04.013.053.005.007.018 0 .032 0Zm4.574-67.366c-.003.073.019.203.053.213.095.036.201.023.4.036-.156-.163-.233-.256-.323-.32-.027-.02-.13.04-.13.07Zm-2.35 41.667c.05-.073.05-.17.05-.263 0-1.009 0-2.017-.003-3.025 0-1.371-.003-2.76-.31-4.084-.117-.506-.358-1.081-.822-1.151-.19-.03-.384.04-.556.14-.957.562-1.233 1.936-1.368 3.141-.225 2.034-.371 3.824-.403 5.87 1.05-.166 2.1-.335 3.146-.502.098-.016.207-.036.265-.126Zm.69 27.273c.027-.086.051-.159.072-.233-.029-.013-.076-.043-.084-.033a.615.615 0 0 0-.072.17c-.003.013.04.046.085.096Zm1.117-45.61h-.038v.126h.04c0-.044 0-.084-.002-.127Zm-1.718 25.046c-.49-.007-.792.543-.965 1.022a20.09 20.09 0 0 0-1.094 8.636l.074.143c1.206.113 2.407.23 3.613.343.098-3.055.19-6.187-.705-9.099-.151-.482-.432-1.038-.923-1.045Zm2.046-41.464c-.018.02-.047.043-.047.066 0 .03.026.057.042.084.01-.037.026-.07.032-.107.002-.013-.019-.03-.027-.043Zm-.448 35.168a1.58 1.58 0 0 0-.042.1l.03.053c.015-.037.034-.07.044-.107.003-.01-.021-.03-.032-.046Zm6.056 16.32-.018-.06-.019.06h.037Zm1.882-.293a79.624 79.624 0 0 0-.564-7.86c-.12-.979-.308-2.04-1.159-2.69a.782.782 0 0 0-.35-.173c-.161-.026-.325.024-.471.094-.793.379-1.015 1.251-1.145 2.02-.501 2.948-.89 5.937-.567 8.889v-.053a26.105 26.105 0 0 1 4.256-.227Zm5.282-12.64c.045-.02.088-.053.133-.086a3.06 3.06 0 0 0-.064-.123c-.04.033-.085.063-.12.11-.004.006.043.103.051.1Zm.557-19.578c-.03-.007-.061-.03-.085-.02-.027.013-.037.056-.056.086.03.01.064.033.088.02.024-.01.034-.056.053-.087Zm2.761 41.86c.006.036.019.07.032.11.01-.017.035-.03.032-.04-.003-.037-.016-.07-.03-.107-.01.014-.036.027-.034.037ZM59.466 95.135c-.01-.033-.023-.063-.037-.096-.01.013-.024.03-.034.04l.037.096c.013-.013.034-.03.034-.04Zm-.61 23.842c.02.077.051.154.08.227.008.016.035.016.05.026.011-.04.04-.086.032-.119-.02-.077-.058-.14-.087-.213-.026.026-.077.063-.074.079Zm.451-2.013c.077-.126.056-.256-.098-.346l-.114.366c.09-.003.186.023.212-.02Zm-.082-3.767h-.032l.019.046.013-.046Zm5.163-11.662c.013.033.056.053.103.1.035-.08.067-.156.096-.23-.03-.02-.064-.063-.093-.056-.072.02-.148.056-.106.186Zm3.085 9.275c.019-.006.034-.006.053-.013l-.013-.05c-.01.004-.027.004-.03.01-.007.013-.007.033-.01.053Zm.697 3.259c.003.02.021.04.032.06-.003-.02-.003-.044-.008-.064-.005-.043-.016-.083-.024-.126 0 0-.003.003-.003.006 0 .04-.002.08.003.124Zm2.353-8.66c.083.003.173.007.244-.04.117-.08.122-.25.114-.393-.069-1.474-.138-2.945-.21-4.419-.079-1.704-.171-3.462-.892-4.992-.225-.473-.602-.975-1.113-.949-.257.013-.496.166-.674.363-.334.37-.487.868-.617 1.354a23.487 23.487 0 0 0-.54 9.196c1.17.07 2.52-.19 3.689-.12Zm-1.113 9.778c.016-.013.043-.033.04-.04-.01-.037-.026-.067-.042-.097-.01.03-.027.064-.035.097-.002.007.027.027.037.04Zm-.97-1.431c-.045-.004-.106-.034-.132-.01-.056.05-.096.13-.14.196l.002-.003c.082.06.17.106.241-.007.027-.04.019-.116.03-.176Zm-2.658-6.324c.043.054.106.08.164.117l.045-.14-.161-.14c-.019.057-.061.143-.048.163Zm1.251-1.584c.013-.01.037-.02.037-.033.005-.017-.01-.037-.016-.057-.024.02-.045.04-.066.06.016.014.032.02.045.03Zm1.648-17.675c.053-.103.056-.23.059-.35a48.249 48.249 0 0 0-.077-3.817c.003 0 .003-.003.005-.003a.028.028 0 0 1-.005-.017 49.786 49.786 0 0 0-.45-4.346c-.056-.353-.115-.716-.274-1.022-.161-.306-.447-.559-.765-.559-.33.003-.61.26-.83.53-1.41 1.716-1.53 4.282-1.503 6.615.013 1.272.112 1.96.167 3.229l3.072-.014c.222-.003.487-.03.602-.246Zm-.723 21.772h-.026l.013.047.013-.047Zm.331 5.065c.013.037.03.07.04.107.003.01-.024.037-.037.04-.01 0-.037-.027-.037-.037.008-.036.024-.073.034-.11Z" fill="#fff"/></svg>