<svg width="43" height="3" fill="none" xmlns="http://www.w3.org/2000/svg"><path d="M0 1.57c2.014-.232 5.082-.427 8.863-.562C12.645.872 16.993.8 21.43.8c4.434 0 8.783.072 12.565.208 3.781.135 6.849.33 8.863.561-2.014.232-5.082.426-8.863.562-3.782.136-8.13.208-12.565.208-4.435 0-8.784-.072-12.566-.208C5.082 1.995 2.014 1.8 0 1.569Zm21.429.512c2.32 0 4.544-.054 6.184-.15 1.64-.096 2.562-.227 2.562-.363 0-.136-.922-.266-2.562-.362-1.64-.096-3.865-.15-6.184-.15-2.32 0-4.545.054-6.185.15-1.64.096-2.562.226-2.562.362 0 .136.922.267 2.562.363 1.64.096 3.865.15 6.185.15Zm0-.256c-1.16 0-2.273-.027-3.093-.076-.82-.048-1.28-.113-1.28-.18 0-.069.46-.134 1.28-.182.82-.048 1.933-.075 3.093-.075s2.272.027 3.092.075c.82.048 1.28.113 1.28.181 0 .068-.46.133-1.28.181-.82.049-1.933.076-3.092.076Z" fill="#1890FF"/></svg>